<svg fill="none" viewBox="0 0 80 150"><path fill="#444CE7" d="M77.983 89.868C46.937 99.912 18.563 72.149 7.428 45.327 5.213 39.983.05 21.613 10.015 20.807c6.732-.547 13.72 7.156 18.057 11.425 10.507 10.332 18.57 22.966 23.62 36.857 1.426-.605 2.861-1.218 4.288-1.823-6.029-14.13-9.319-31.33-5.867-46.555.684-3.022 1.664-6.034 3.252-8.71 2.006-3.368 6.171-8.72 10.497-5.287 2.273 1.804 3.034 8.289 3.424 10.956.57 3.923.58 7.895.39 11.847-1.493 30.497-9.614 63.363-28.574 87.729-9.537 12.26-21.623 21.94-35.81 28.137-2.491 1.084-.685 5.497 1.864 4.461 32.434-13.22 52.079-45.251 60.665-78.184 2.387-9.171 4.032-18.524 5.23-27.926 1.17-9.19 2.273-18.6.799-27.82C70.975 10.427 68.455-.73 60.924.038 54.601.69 49.761 7.722 47.508 13.075c-7.37 17.469-2.825 39.907 4.44 56.58 1.056 2.427 5.22.69 4.288-1.823-4.801-12.94-11.876-24.827-21.204-34.967-6.028-6.552-19.968-21.978-30.086-14.783C.211 21.45-.33 28.587.136 33.902c.636 7.223 3.508 14.005 7.007 20.26 6.856 12.28 15.946 23.83 27.67 31.696 12.885 8.653 29.154 12.202 44.064 7.204 1.978-.662 1.131-3.856-.894-3.194Z"/></svg>