<svg fill="none" viewBox="0 0 160 170"><path fill="#444CE7" d="M88.397.216c38.017 26.022 64.102 67.808 70.271 113.087 1.309 9.588 2.638 20.327-1.187 29.555-3.632 8.748-12.033 12.481-21.165 9.458-11.16-3.693-21.743-11.77-31.107-18.636-9.335-6.845-18.182-14.342-26.41-22.449C59.56 92.305 43.692 70.196 31.994 46.015c-.71-1.48.954-2.652 2.212-1.681 21.763 16.704 38.078 39.694 46.58 65.576a131.004 131.004 0 0 1 4.84 19.737c.933 5.745 2.272 12.341 1.187 18.115-.883 4.694-4.21 8.348-9.274 8.167-5.773-.2-10.521-4.744-14.407-8.477-13.545-13.031-26.146-26.993-37.784-41.716.771-.59 1.542-1.171 2.313-1.761 6.443 10.169 11.75 21.008 15.676 32.368a150.195 150.195 0 0 1 5.175 18.876c.74 3.623 2.648 9.228-.03 12.521-5.226 6.435-15.372-2.573-19.461-5.946-8.766-7.236-15.828-16.173-21.012-26.202h2.587c-4.647 8.487 6.412 17.555 1.299 26.002-2.436 4.024-7.65 5.605-11.395 2.522-1.48-1.221.65-3.312 2.121-2.091l4.261.33c1.096-.47 1.867-1.241 2.324-2.302 1.116-1.902 1.024-3.713.73-5.855-.426-3.153-1.907-6.045-2.719-9.108-1.035-3.853-1.106-7.426.812-10.989.507-.951 2.07-.971 2.587 0 3.998 7.586 9.01 14.572 15.128 20.637 3.378 3.353 7.051 6.476 11.008 9.148 1.482 1.001 3.785 2.923 5.672 2.853 6.422-.22 4.018-6.846 3.43-9.869-3.572-18.305-10.664-35.65-20.709-51.424-.872-1.361 1.268-3.082 2.313-1.761 10.715 13.491 22.21 26.352 34.527 38.443 3.095 3.032 6.23 6.575 10.015 8.807 3.317 1.952 7.782 3.723 10.764-.45 1.177-1.652 1.35-4.014 1.431-5.945.305-7.467-1.309-15.313-2.962-22.57-6.808-29.715-24.209-56.858-48.691-75.444l1.927-1.902c19.136 39.034 49.097 72.562 86.272 95.772 8.969 5.595 24.574 16.574 32.528 4.024 5.215-8.227 3.846-19.477 2.79-28.615-2.485-21.398-9.598-42.246-20.373-60.952C123.695 34.025 107.157 16 87.209 2.318c-1.329-.9-.111-2.993 1.188-2.102Z"/></svg>