<svg width="160" height="160" viewBox="0 0 160 160" fill="none" xmlns="http://www.w3.org/2000/svg">
<mask id="mask0_415_5671" style="mask-type:luminance" maskUnits="userSpaceOnUse" x="0" y="0" width="160" height="160">
<path d="M160 0H0V160H160V0Z" fill="white"/>
</mask>
<g mask="url(#mask0_415_5671)">
<path d="M19.1398 127.317C22.1467 128.577 25.2007 129.717 28.3019 130.738C31.3783 131.749 34.489 132.641 37.634 133.412C39.4973 133.87 41.369 134.285 43.2489 134.657C43.5658 134.685 43.8808 134.586 44.1248 134.381C44.3668 134.176 44.5188 133.883 44.5481 133.567C44.5757 133.25 44.4767 132.935 44.2727 132.691C44.0574 132.46 43.7695 132.31 43.4569 132.266C43.0576 132.184 42.6615 132.103 42.2686 132.025L41.6933 131.902L41.4128 131.836C41.3671 131.827 41.2045 131.79 41.3827 131.83L41.3159 131.816C40.527 131.642 39.7391 131.461 38.9524 131.271C37.3798 130.891 35.8139 130.482 34.2547 130.044C31.1345 129.17 28.0551 128.172 25.0164 127.052C23.3147 126.424 21.6265 125.76 19.9518 125.058C19.6518 124.954 19.3226 124.971 19.0354 125.107C18.7482 125.243 18.5259 125.487 18.4164 125.785C18.3174 126.084 18.3373 126.41 18.472 126.695C18.6067 126.98 18.8458 127.203 19.1398 127.317Z" fill="#444CE7"/>
<path d="M29.905 91.2594L40.1019 99.0407L50.3002 106.821L56.0182 111.184C56.2812 111.362 56.6032 111.43 56.9162 111.372C57.2292 111.315 57.5062 111.137 57.6882 110.877C57.8622 110.613 57.9272 110.292 57.8702 109.981C57.8132 109.67 57.6382 109.393 57.3822 109.208L47.1842 101.427L36.9861 93.6472L31.267 89.2832C31.0043 89.1051 30.6821 89.0374 30.37 89.0949C30.0579 89.1524 29.781 89.3304 29.599 89.5904C29.4253 89.8545 29.3601 90.1754 29.4171 90.4863C29.4741 90.7973 29.6489 91.0742 29.905 91.2594Z" fill="#444CE7"/>
<path d="M55.2781 56.7753C57.1811 59.2086 59.0401 61.6729 60.8551 64.1682C62.6701 66.6635 64.4221 69.1896 66.1091 71.7464C67.0721 73.1965 68.019 74.6566 68.949 76.1265L68.7751 75.8546C70.7491 78.9718 72.6491 82.1335 74.4741 85.34C74.9921 86.2492 75.504 87.162 76.01 88.0784C76.152 88.367 76.3971 88.5922 76.6961 88.7098C76.9921 88.8125 77.3151 88.7982 77.6001 88.6696C78.1431 88.3922 78.516 87.6674 78.193 87.0803C75.763 82.6786 73.196 78.358 70.491 74.1183C67.836 69.949 65.0521 65.8645 62.1371 61.8647C60.5031 59.6238 58.83 57.412 57.118 55.2293C56.912 54.9877 56.6201 54.8368 56.3031 54.8091C55.9871 54.7815 55.6721 54.8792 55.4281 55.0814C55.1901 55.2897 55.0411 55.5819 55.0141 55.897C54.9861 56.212 55.0821 56.5256 55.2801 56.772L55.2781 56.7753Z" fill="#444CE7"/>
<path d="M96.6611 33.9878L100.873 49.3144L105.086 64.6401L107.453 73.2638C107.518 73.5787 107.696 73.8587 107.954 74.0504C108.214 74.2254 108.53 74.2948 108.838 74.2447C109.422 74.1186 109.997 73.5045 109.819 72.8598L105.607 57.5331L101.399 42.2101L99.0281 33.585C98.9641 33.2698 98.786 32.9895 98.527 32.7984C98.268 32.623 97.9521 32.5535 97.6431 32.6041C97.0591 32.729 96.4841 33.3431 96.6621 33.989L96.6611 33.9878Z" fill="#444CE7"/>
<path d="M143.038 38.2108C143.12 42.7539 142.998 47.2943 142.673 51.8322C142.346 56.3395 141.82 60.8264 141.094 65.2927C140.683 67.8091 140.209 70.3134 139.67 72.8057C139.61 73.0855 139.772 73.4756 139.946 73.6828C140.152 73.9245 140.445 74.0764 140.761 74.1061C141.078 74.1335 141.393 74.0345 141.637 73.8307C141.865 73.6137 142.013 73.327 142.06 73.0159C143.017 68.575 143.772 64.0965 144.327 59.5803C144.879 55.0933 145.227 50.589 145.372 46.0672C145.455 43.52 145.475 40.9709 145.43 38.42C145.448 38.1042 145.35 37.7926 145.154 37.5442C144.948 37.3021 144.655 37.1499 144.339 37.1196C143.746 37.0927 143.024 37.544 143.039 38.2097L143.038 38.2108Z" fill="#444CE7"/>
</g>
</svg>
