<svg fill="none" viewBox="0 0 170 160"><path fill="#444CE7" d="M.296 43.72c9.37 12.606 27.157 13.328 39.776 5.259 15.888-10.17 22.27-29.063 27.504-46.185h-4.3c3.288 19.077 13.555 40.012 34.851 43.151 20.621 3.034 31.756-16.832 47.479-25.827-1.253-.712-2.497-1.434-3.75-2.147.174 5.816-2.786 10.872-4.521 16.274-1.36 4.208-2.237 8.561-2.738 12.952-1.003 8.792-.309 17.777 1.851 26.347 4.357 17.305 14.75 32.693 29.538 42.737.694-1.637 1.379-3.274 2.073-4.911-27.379-4.526-55.674 14.589-60.831 42.082 1.417-.578 2.844-1.156 4.261-1.734-10.961-6.683-23.465-13.558-36.779-11.969-10.151 1.213-19.252 6.866-23.002 16.592h5.688c-3.017-12.702-7.269-26.164-16.051-36.16-7.684-8.734-19.117-15.013-30.927-12.018.964 1.656 1.928 3.303 2.892 4.959 7.78-6.663 15.415-16.87 16.987-27.223 1.745-11.498-5.447-23.015-14.567-29.361-3.152-2.195-6.14 2.966-3.008 5.142 7.934 5.518 13.94 16.12 11.116 25.895-2.362 8.175-8.34 15.87-14.721 21.349-2.343 2.012.173 5.643 2.892 4.959 10.72-2.725 21.2 4.699 27.215 13.068 6.546 9.109 9.91 20.174 12.484 30.95.733 3.062 4.724 2.523 5.688 0 3.24-8.426 12.61-12.567 21.2-12.548 10.922.019 20.91 5.874 29.972 11.363 1.494.905 3.923.116 4.261-1.733 4.444-24.161 29.268-42.371 53.803-38.442 2.96.472 4.714-3.139 2.073-4.911-14.461-9.717-24.227-25.124-27.929-42.053-1.831-8.388-2.159-17.199-.665-25.663 1.543-8.744 7.009-17.036 6.739-25.962-.058-1.878-2.073-3.11-3.75-2.148-13.516 7.752-23.957 25.664-40.982 25.567-21.17-.125-31.244-22.023-34.532-39.78-.415-2.263-3.721-1.974-4.3 0-4.367 14.781-8.85 30.44-20.861 40.994-11.02 9.687-29.606 12.624-39.488-.415C1.751 40.66-.88 42.142.296 43.72Z"/></svg>