<svg fill="none" viewBox="0 0 155 160"><path fill="#444CE7" d="M10.608 45.864c3.95 3.119 7.83 6.388 11.922 9.345 1.521 1.097 3.44-1.358 2.022-2.575-3.716-3.189-7.697-6.106-11.545-9.134-1.695-1.318-4.104 1.026-2.4 2.364ZM1.75 83.587c6.91-.996 14.025-1.63 20.833-3.158 1.43-.322 1.154-2.666-.347-2.555-7.094.523-14.199 2.001-21.222 3.068-1.776.271-1.02 2.897.735 2.645ZM21.255 121.029c1.98-2.173 3.96-4.346 5.94-6.508 1.797-1.972 4.002-3.893 5.125-6.328.429-.925-.48-2.052-1.49-1.468-2.338 1.337-4.053 3.661-5.85 5.613-1.99 2.163-3.97 4.335-5.96 6.498-1.358 1.469.877 3.682 2.235 2.193ZM48.304 117.388c-.081 8.138-.857 16.628-.04 24.726.173 1.76 2.603 1.77 2.786 0 .817-8.098.041-16.588-.04-24.726-.031-1.711-2.695-1.711-2.706 0ZM76.113 138.372c1.296 6.8 2.062 13.993 4.032 20.632.439 1.479 3.011 1.278 2.848-.382-.694-7.022-2.715-14.094-4.114-21.005-.357-1.78-3.103-1.016-2.766.755ZM110.656 133.493c3.144 5.482 6.002 11.377 9.626 16.558 1.265 1.801 3.858.262 2.95-1.7-2.644-5.734-6.299-11.176-9.453-16.659-1.153-2.002-4.277-.201-3.123 1.801ZM123.171 110.97c8.697 2.846 17.282 6.619 26.112 8.943 1.919.503 3.235-2.294 1.378-3.23-8.238-4.144-17.69-6.609-26.51-9.234-2.297-.684-3.236 2.786-.98 3.521ZM131.796 87.581c7.105-.573 13.148 1.006 19.844 3.119 2.052.643 3.451-2.505 1.48-3.46-6.624-3.23-14.525-3.562-21.722-2.566-1.674.221-1.296 3.038.398 2.907ZM134.881 64.806c3.46-1.63 6.962-3.168 10.565-4.476 2.94-1.067 6.278-1.62 8.901-3.34a1.368 1.368 0 0 0-.694-2.535c-3.552-.14-7.237 1.63-10.473 2.937a85.41 85.41 0 0 0-9.891 4.718c-1.787 1.006-.215 3.541 1.592 2.696ZM133.829 40.985c5.237-5.694 11.392-9.144 18.038-12.936 1.531-.876.51-3.29-1.205-2.817-7.574 2.062-14.281 7.535-19.395 13.238-1.531 1.71.99 4.225 2.562 2.515ZM33.106 21.057c2.052 5.744 4.798 12.363 9.259 16.7 1.286 1.247 3.297-.333 2.46-1.872-2.91-5.352-6.309-9.919-8.422-15.723-.745-2.012-4.032-1.157-3.297.895ZM64.21 10.806c.817 4.457 1.306 9.165 2.603 13.51.561 1.872 3.736 1.61 3.583-.472-.357-4.688-1.613-9.426-2.48-14.043-.44-2.405-4.145-1.389-3.706 1.005ZM95.009 25.272c.97-7.917 2.082-15.824 2.868-23.76.174-1.71-2.827-2.133-3.072-.413-1.164 8.028-2.001 16.115-2.981 24.173-.245 2.002 2.94 1.982 3.185 0ZM115.637 30.201c.174-6.96 3.94-11.417 9.177-15.572 1.399-1.106-.388-2.827-1.756-2.243-6.767 2.887-10.504 10.925-10.687 17.815-.062 2.073 3.215 2.073 3.266 0Z"/></svg>