<svg width="77" height="75" viewBox="0 0 77 75" fill="none" xmlns="http://www.w3.org/2000/svg">
<path d="M8.60514 19.69C8.43814 19.675 8.26114 19.66 8.07514 19.644C7.90614 19.648 7.75112 19.596 7.61112 19.491C7.12412 19.485 6.66514 19.267 6.23414 18.836C5.80414 18.405 5.56214 17.953 5.51014 17.48C5.49214 17.047 5.53114 16.601 5.62714 16.141C5.76114 15.684 5.93013 15.146 6.13413 14.527C6.35613 13.909 6.59913 13.275 6.86213 12.623C7.14613 11.955 7.43412 11.333 7.72812 10.76C7.79512 10.634 7.90913 10.401 8.07013 10.059C8.23313 9.69803 8.40812 9.31101 8.59412 8.89601C8.80012 8.46401 8.98412 8.077 9.14512 7.735C9.30812 7.375 9.41313 7.13104 9.46213 7.00404C9.62613 6.62504 9.75412 6.34603 9.84412 6.16603C9.93512 5.98703 10.0231 5.83499 10.1091 5.71199C10.1961 5.56998 10.3071 5.38203 10.4391 5.15003C10.5721 4.91803 10.7521 4.569 10.9811 4.102C11.2291 3.617 11.4951 3.14402 11.7801 2.68202C12.0821 2.22102 12.4031 1.77102 12.7411 1.33302C12.8451 1.21002 12.9321 1.07803 13.0011 0.934031C13.0691 0.790031 13.1371 0.655039 13.2041 0.530039C13.4181 0.230039 13.6321 0.145987 13.8451 0.276987C14.0791 0.390987 14.3551 0.545991 14.6761 0.742991C14.8521 0.870991 14.9511 1.01999 14.9741 1.19099C15.0151 1.36299 14.9531 1.53502 14.7881 1.70802C14.3841 2.25402 13.9791 2.81801 13.5721 3.40101C13.1851 3.96701 12.8071 4.542 12.4371 5.128C12.3931 5.2 12.3061 5.342 12.1751 5.555C12.0621 5.77 11.9501 5.98502 11.8371 6.20002C11.7251 6.41502 11.6641 6.569 11.6561 6.662C11.5251 6.876 11.3451 7.21599 11.1171 7.68299C10.8891 8.14999 10.6481 8.65398 10.3951 9.19398C10.1411 9.73398 9.90014 10.247 9.67014 10.733C9.46014 11.201 9.29812 11.553 9.18412 11.786C8.93612 12.271 8.69313 12.793 8.45713 13.353C8.24113 13.896 8.06911 14.359 7.94211 14.741C7.91211 14.87 7.85714 15.071 7.77714 15.345C7.69814 15.601 7.61814 15.875 7.53614 16.167C7.47414 16.443 7.41612 16.682 7.36112 16.883C7.30812 17.066 7.29314 17.13 7.31614 17.076C7.28614 17.204 7.27512 17.325 7.28412 17.438C7.29312 17.551 7.33014 17.667 7.39414 17.785C8.12614 18.205 8.89314 18.432 9.69614 18.464C10.5011 18.479 11.2861 18.491 12.0541 18.502C12.0891 18.524 12.2191 18.545 12.4421 18.564C12.6651 18.584 12.8971 18.604 13.1391 18.625C13.3831 18.628 13.5411 18.632 13.6161 18.639C13.6631 18.53 13.6611 18.446 13.6101 18.385C13.5791 18.308 13.5291 18.238 13.4601 18.175C13.3351 17.883 13.2621 17.652 13.2391 17.481C13.2171 17.311 13.2511 17.136 13.3411 16.956C13.4321 16.777 13.5671 16.517 13.7471 16.177C13.8251 15.921 14.0161 15.46 14.3181 14.793C14.6201 14.126 14.9681 13.36 15.3621 12.495C15.7751 11.632 16.1871 10.778 16.5981 9.93299C17.0111 9.06999 17.3761 8.31504 17.6951 7.66804C18.0161 7.00304 18.2331 6.55402 18.3471 6.32002C18.5931 5.87302 18.7841 5.50603 18.9221 5.21803C19.0611 4.91203 19.1801 4.62199 19.2791 4.34999C19.3981 4.05999 19.5211 3.72499 19.6481 3.34199L19.8941 2.77302C20.0481 2.73102 20.1981 2.73398 20.3431 2.78498C20.4901 2.81598 20.6261 2.86599 20.7521 2.93299C20.9511 3.00599 21.1631 3.15603 21.3871 3.38203C21.6111 3.60803 21.6271 3.85301 21.4351 4.11701C21.4551 4.10001 21.3851 4.26201 21.2241 4.60401C21.0631 4.94601 20.8461 5.386 20.5741 5.925C20.3211 6.465 20.0361 7.039 19.7211 7.649C19.4241 8.26 19.1381 8.84401 18.8651 9.40101C18.5911 9.95801 18.3641 10.416 18.1831 10.775C18.0201 11.135 17.9281 11.324 17.9081 11.341C17.6311 11.935 17.3541 12.529 17.0781 13.123C16.8021 13.699 16.5451 14.285 16.3051 14.883C15.9231 15.824 15.5991 16.639 15.3331 17.327C15.0861 17.999 14.9291 18.407 14.8601 18.551C14.9651 18.635 15.0711 18.71 15.1781 18.775C15.3051 18.824 15.4381 18.798 15.5781 18.698C15.9871 18.734 16.4641 18.747 17.0081 18.739C17.5721 18.713 18.1091 18.685 18.6171 18.655C19.1461 18.607 19.5621 18.569 19.8641 18.539C20.1671 18.509 20.2611 18.499 20.1481 18.507C20.2831 18.463 20.4271 18.429 20.5791 18.405C20.7311 18.38 20.8741 18.346 21.0091 18.302C21.1021 18.104 21.1751 17.904 21.2301 17.703C21.3061 17.484 21.3891 17.286 21.4791 17.106C21.7561 16.512 22.0151 15.907 22.2561 15.291C22.4981 14.675 22.7831 14.091 23.1121 13.539C23.2231 13.342 23.3251 13.145 23.4171 12.947C23.5281 12.751 23.6201 12.553 23.6941 12.353C23.7431 12.226 23.8381 11.991 23.9811 11.647C24.1431 11.287 24.3271 10.9 24.5321 10.487C24.7381 10.055 24.9221 9.66904 25.0831 9.32704C25.2461 8.96604 25.3611 8.72303 25.4281 8.59803C25.5201 8.40003 25.6811 8.05803 25.9111 7.57203C26.1431 7.06803 26.4071 6.51 26.7041 5.899C27.0031 5.269 27.3001 4.65799 27.5951 4.06599C27.8921 3.45399 28.1441 2.93299 28.3501 2.50099C28.5571 2.06999 28.6821 1.81802 28.7251 1.74702C29.0281 1.71702 29.2961 1.76003 29.5291 1.87403C29.7631 1.98803 29.9911 2.16702 30.2131 2.41102C30.2531 2.60202 30.2551 2.79001 30.2201 2.97401C30.1851 3.15901 30.1121 3.34899 30.0021 3.54499C29.5951 4.33399 29.1551 5.18599 28.6821 6.09999C28.2271 7.01599 27.7821 7.92303 27.3481 8.82203C26.9131 9.72103 26.5131 10.548 26.1471 11.303C25.7761 12.114 25.3871 12.923 24.9791 13.73C24.5911 14.521 24.2291 15.342 23.8921 16.193C23.8481 16.264 23.7691 16.426 23.6531 16.678C23.5371 16.93 23.4191 17.21 23.2981 17.518C23.1791 17.808 23.0721 18.07 22.9761 18.305C22.9001 18.542 22.8691 18.68 22.8841 18.719C22.9691 18.82 22.9771 18.942 22.9081 19.086C22.8411 19.212 22.7471 19.325 22.6251 19.427C22.5231 19.53 22.4231 19.597 22.3271 19.626C22.2511 19.638 22.1641 19.668 22.0661 19.715C21.9881 19.746 21.9061 19.72 21.8201 19.637C21.1671 19.824 20.4241 19.956 19.5931 20.033C18.7801 20.112 17.9211 20.186 17.0161 20.257C16.8081 20.276 16.5001 20.259 16.0931 20.204C15.7021 20.17 15.3211 20.137 14.9491 20.104C14.5961 20.074 14.3521 20.08 14.2171 20.125C14.1571 20.157 14.0081 20.153 13.7681 20.114C13.5461 20.075 13.3161 20.027 13.0781 19.969C12.8381 19.929 12.6531 19.903 12.5221 19.892C12.1321 19.858 11.6571 19.826 11.0971 19.796C10.5551 19.786 10.0411 19.769 9.55613 19.745C9.08913 19.723 8.77214 19.705 8.60514 19.69ZM29.8231 21.209C29.5441 21.185 29.1921 21.135 28.7681 21.06C28.3621 20.987 28.0311 20.696 27.7761 20.187C27.6181 19.854 27.5101 19.479 27.4531 19.062C27.4141 18.647 27.4391 18.358 27.5281 18.198C27.9141 16.788 28.2051 15.821 28.4011 15.295C28.5971 14.768 28.7071 14.469 28.7321 14.396C28.7761 14.325 28.8661 14.155 29.0021 13.886C29.1581 13.599 29.2491 13.42 29.2741 13.347C29.3931 13.058 29.4501 12.726 29.4451 12.35C29.4401 12.2 29.4601 12.071 29.5071 11.962C29.5751 11.837 29.6681 11.733 29.7881 11.65C30.1251 11.435 30.4041 11.141 30.6241 10.767C30.6911 10.642 30.8131 10.428 30.9891 10.124C31.1861 9.80403 31.3821 9.49403 31.5771 9.19203C31.7921 8.87403 31.9521 8.65302 32.0561 8.53102C32.3861 8.18502 32.6901 7.81904 32.9681 7.43104C33.2651 7.02604 33.6141 6.68102 34.0141 6.39802C34.2911 6.01002 34.6301 5.66499 35.0321 5.36299C35.4341 5.04199 35.8351 4.74902 36.2331 4.48402C36.6311 4.21902 36.9511 3.98502 37.1941 3.78102C37.2951 3.69602 37.5531 3.63402 37.9691 3.59602C38.4051 3.54002 38.7561 3.48701 39.0231 3.43501C39.1391 3.38901 39.3491 3.45399 39.6521 3.63099C39.9571 3.78899 40.1671 3.957 40.2831 4.136C40.4881 4.566 40.5991 4.91304 40.6131 5.17604C40.6461 5.44204 40.5821 5.74499 40.4211 6.08699C40.2801 6.41198 40.0111 6.91301 39.6151 7.59101C39.1781 8.30201 38.5861 8.96199 37.8391 9.57099C37.1131 10.164 36.3751 10.671 35.6271 11.092C35.2461 11.377 34.8481 11.633 34.4351 11.859C34.0401 12.087 33.6391 12.286 33.2301 12.457C32.9771 12.566 32.7161 12.665 32.4461 12.753C32.1941 12.844 31.9341 12.924 31.6661 12.994C31.5321 13.02 31.4051 13.084 31.2841 13.186C31.1641 13.269 31.0591 13.4 30.9681 13.58C30.8341 13.83 30.7491 14.048 30.7141 14.232C30.7001 14.399 30.6321 14.534 30.5101 14.636C30.4501 14.687 30.3461 14.903 30.2011 15.283C30.0751 15.647 29.9241 16.084 29.7491 16.593C29.5931 17.085 29.4591 17.551 29.3451 17.991C29.2341 18.412 29.1801 18.698 29.1861 18.848C29.1961 18.943 29.2061 19.047 29.2151 19.16C29.2441 19.256 29.3211 19.338 29.4461 19.405C29.7301 19.374 29.9621 19.3 30.1401 19.185C30.3211 19.051 30.5241 18.872 30.7491 18.648C30.9971 18.389 31.2281 18.109 31.4411 17.809C31.6731 17.511 31.8691 17.2 32.0291 16.877C32.1211 16.679 32.1951 16.47 32.2521 16.25C32.3111 16.011 32.3941 15.803 32.5041 15.625C32.5411 15.198 32.5591 14.881 32.5591 14.675C32.5781 14.451 32.5751 14.273 32.5491 14.14C32.5441 13.989 32.5121 13.818 32.4541 13.625C32.6111 13.545 32.7011 13.478 32.7241 13.424C32.7661 13.372 32.8511 13.37 32.9781 13.418C33.2151 13.495 33.4301 13.608 33.6231 13.756C33.8351 13.905 34.0341 14.092 34.2201 14.314C34.2881 14.395 34.3281 14.473 34.3401 14.549C34.3521 14.625 34.3361 14.708 34.2901 14.798C34.2521 15.019 34.2051 15.24 34.1481 15.46C34.1121 15.663 34.0851 15.867 34.0671 16.071C33.9151 16.302 33.8091 16.555 33.7471 16.83C33.6871 17.087 33.5991 17.342 33.4841 17.594C33.3511 17.826 33.2181 18.058 33.0861 18.29C32.9531 18.522 32.8031 18.734 32.6361 18.925C32.3771 19.315 32.0851 19.655 31.7601 19.945C31.4541 20.237 31.1311 20.499 30.7921 20.732L29.8231 21.209ZM32.0061 11.029C32.2261 11.085 32.3831 11.108 32.4781 11.098C32.5931 11.07 32.7131 10.987 32.8371 10.848C33.7621 10.348 34.6111 9.851 35.3851 9.357C36.1611 8.844 36.8131 8.34801 37.3421 7.87001C37.8911 7.37401 38.2581 6.92799 38.4431 6.53199C38.5541 6.33599 38.6731 6.15003 38.8011 5.97303C38.9471 5.79903 39.0501 5.59201 39.1081 5.35401L39.0651 4.563C38.5231 4.759 38.0851 4.946 37.7511 5.123C37.4351 5.301 37.0151 5.61101 36.4891 6.05201C36.2871 6.22201 35.9801 6.51401 35.5691 6.92701C35.1791 7.32401 34.7461 7.77403 34.2711 8.27503C33.7961 8.77703 33.3501 9.27202 32.9321 9.76002C32.5331 10.25 32.2251 10.673 32.0061 11.029ZM41.3601 22.246C41.1911 22.044 41.0271 21.777 40.8681 21.445C40.7121 21.094 40.5961 20.699 40.5221 20.262C40.4981 20.11 40.4971 19.904 40.5201 19.643C40.5611 19.385 40.5781 19.199 40.5691 19.085C40.5021 19.211 40.3961 19.342 40.2531 19.479C40.1301 19.6 40.0091 19.702 39.8891 19.785C39.8081 19.853 39.6281 19.987 39.3481 20.187C39.0701 20.369 38.7951 20.514 38.5231 20.621C37.8751 20.958 37.3451 21.127 36.9331 21.128C36.5391 21.131 36.1851 20.894 35.8711 20.417C35.5941 20.149 35.4041 19.861 35.3001 19.552C35.2151 19.245 35.2501 18.836 35.4071 18.325C35.5021 17.677 35.6501 17.053 35.8521 16.452C36.0561 15.833 36.4361 15.023 36.9921 14.022C37.4501 13.294 37.7961 12.762 38.0311 12.427C38.2691 12.073 38.4181 11.861 38.4811 11.792C38.7681 11.723 38.9991 11.753 39.1751 11.881C39.3531 11.99 39.4491 12.176 39.4641 12.44C39.5591 12.636 39.5131 12.95 39.3251 13.383C39.1561 13.818 38.8751 14.346 38.4841 14.968C38.1681 15.578 37.8711 16.189 37.5931 16.801C37.3331 17.416 37.1651 17.944 37.0881 18.387C37.0121 18.83 37.1001 19.11 37.3521 19.226C37.5121 19.333 37.8021 19.331 38.2241 19.218C38.6651 19.106 39.1721 18.776 39.7451 18.226C40.3361 17.678 40.9351 16.822 41.5431 15.657C41.7251 15.298 41.8651 14.983 41.9631 14.71C42.0641 14.419 42.1391 14.098 42.1881 13.746C42.1711 13.52 42.1971 13.325 42.2671 13.163C42.3581 12.984 42.5211 12.838 42.7551 12.728C42.8381 12.641 42.9471 12.567 43.0841 12.504C43.2221 12.422 43.3061 12.429 43.3351 12.526L43.7841 12.537C43.8601 12.525 43.9021 12.575 43.9111 12.688C43.9401 12.785 43.9981 12.874 44.0841 12.957C44.2741 13.142 44.2981 13.509 44.1571 14.059C44.0151 14.609 43.6861 15.367 43.1711 16.334C42.7511 17.065 42.4581 17.621 42.2941 18C42.1481 18.38 42.0501 18.756 41.9991 19.126C41.9691 19.461 42.0071 19.783 42.1111 20.092C42.2151 20.401 42.3961 20.688 42.6541 20.954C42.8471 21.102 42.9461 21.261 42.9501 21.43C42.9721 21.6 42.9641 21.797 42.9261 22.018C42.8741 22.182 42.7511 22.312 42.5551 22.407C42.3791 22.486 42.1801 22.515 41.9571 22.495C41.7341 22.476 41.5351 22.393 41.3601 22.246ZM45.2541 20.507C45.2441 20.413 45.2411 20.225 45.2471 19.944C45.2541 19.645 45.2151 19.454 45.1281 19.372C45.2221 18.949 45.3021 18.563 45.3701 18.213C45.4391 17.863 45.5431 17.525 45.6841 17.2C45.7561 17.019 45.8701 16.785 46.0261 16.499C46.2011 16.215 46.3841 15.94 46.5761 15.676C46.7691 15.393 46.9361 15.202 47.0761 15.101C47.2161 15.001 47.3391 14.881 47.4451 14.74C47.5701 14.601 47.7001 14.5 47.8371 14.437C47.9571 14.354 48.0311 14.257 48.0591 14.147C48.1061 14.039 48.1881 13.962 48.3041 13.916C48.5991 13.754 48.8371 13.607 49.0171 13.472C49.1981 13.338 49.3861 13.224 49.5821 13.128C49.7961 13.035 50.0741 12.956 50.4171 12.892C50.7991 12.813 51.0751 12.762 51.2461 12.74C51.4371 12.7 51.6151 12.697 51.7811 12.73C51.9461 12.764 52.1931 12.841 52.5191 12.964C52.5291 12.852 52.5311 12.721 52.5251 12.571C52.5211 12.402 52.5281 12.224 52.5441 12.038C52.6041 11.781 52.6161 11.529 52.5821 11.283C52.5671 11.019 52.5471 10.83 52.5191 10.715C52.4191 10.575 52.3721 10.365 52.3781 10.084C52.3851 9.78499 52.3221 9.545 52.1871 9.365C52.2741 9.017 52.1731 8.67104 51.8851 8.32704C51.6171 7.96604 51.2771 7.674 50.8651 7.451C50.4551 7.209 50.0621 7.09902 49.6851 7.12202C49.4791 7.12302 49.2631 7.13203 49.0371 7.15003C48.8101 7.16803 48.5971 7.24301 48.3981 7.37501C48.1551 7.37301 47.9591 7.365 47.8101 7.352C47.6621 7.339 47.5261 7.28004 47.4041 7.17604C47.2261 6.86004 47.1051 6.634 47.0421 6.498C46.9971 6.363 47.0161 6.261 47.0971 6.193C47.1791 6.107 47.3171 6.03502 47.5091 5.97602C47.7221 5.90102 47.9861 5.77502 48.3011 5.59602C48.4991 5.68802 48.6491 5.692 48.7501 5.607C48.8511 5.522 49.0011 5.52599 49.1991 5.61799C49.3561 5.53799 49.6001 5.53203 49.9311 5.59803C50.2631 5.66503 50.4641 5.72001 50.5351 5.76301C50.5881 5.80501 50.6411 5.83801 50.6951 5.86201C50.7511 5.86701 50.8061 5.881 50.8601 5.904C51.5001 6.091 52.0441 6.40099 52.4931 6.83399C52.9611 7.26899 53.3171 7.80602 53.5611 8.44502C53.6511 8.69702 53.7421 8.94802 53.8321 9.20002C53.9231 9.45102 54.0141 9.69403 54.1061 9.92603C54.1331 10.041 54.1501 10.277 54.1561 10.634C54.1831 10.973 54.2011 11.303 54.2101 11.622C54.2401 11.924 54.2531 12.104 54.2481 12.159C54.2691 12.349 54.2721 12.527 54.2571 12.694C54.2431 12.862 54.2091 13.037 54.1551 13.219C53.8031 14.669 53.3511 15.988 52.7971 17.176C52.2431 18.364 51.5301 19.557 50.6571 20.755C50.4871 20.984 50.2611 21.208 49.9801 21.427C49.6981 21.646 49.4281 21.847 49.1681 22.03C48.8481 22.264 48.5061 22.422 48.1431 22.503C47.7821 22.565 47.3861 22.586 46.9571 22.567C46.4721 22.113 46.1171 21.782 45.8911 21.575C45.6661 21.368 45.5221 21.196 45.4591 21.059C45.3961 20.922 45.3271 20.738 45.2541 20.507ZM47.3551 21.225C47.4751 21.142 47.6011 21.097 47.7331 21.089C47.8851 21.065 48.0051 20.973 48.0941 20.812C48.3521 20.647 48.6481 20.373 48.9811 19.99C49.3331 19.609 49.6691 19.198 49.9891 18.757C50.3101 18.298 50.5601 17.898 50.7401 17.558C50.8321 17.36 50.9141 17.171 50.9861 16.989C51.0791 16.791 51.1881 16.614 51.3141 16.456C51.5311 16.119 51.7161 15.714 51.8701 15.24C52.0261 14.747 52.0501 14.365 51.9421 14.094C50.9661 14.327 50.1481 14.686 49.4871 15.172C48.8281 15.639 48.2051 16.334 47.6181 17.257C47.5281 17.643 47.3841 18.005 47.1861 18.343C47.0081 18.665 46.8831 19.02 46.8121 19.407C46.7031 19.585 46.6381 19.785 46.6191 20.008C46.6191 20.214 46.6451 20.46 46.6951 20.746C46.9201 20.953 47.0411 21.066 47.0581 21.087C47.0961 21.09 47.1951 21.136 47.3551 21.225ZM54.1421 22.803C53.9671 22.656 53.8381 22.523 53.7551 22.403C53.6721 22.284 53.6491 22.122 53.6851 21.919C53.7471 21.644 53.8281 21.36 53.9281 21.069C54.0301 20.76 54.1501 20.461 54.2881 20.173C54.3731 19.843 54.4671 19.514 54.5711 19.186C54.6931 18.86 54.8691 18.556 55.1001 18.277C55.4941 17.412 55.8581 16.572 56.1921 15.758C56.5451 14.927 57.0051 13.956 57.5711 12.844C57.6821 12.647 57.7781 12.506 57.8611 12.419C57.9641 12.316 58.0571 12.211 58.1411 12.106C58.1661 12.034 58.2251 12.001 58.3181 12.01C58.4321 12.001 58.5511 12.03 58.6761 12.097C58.8031 12.146 58.9001 12.22 58.9661 12.319C59.0421 12.307 59.1341 12.437 59.2411 12.709C59.3671 12.982 59.4051 13.191 59.3551 13.337C59.3481 13.411 59.3211 13.512 59.2721 13.639C59.2231 13.766 59.1571 13.882 59.0731 13.987C58.9921 14.055 58.9081 14.16 58.8201 14.302C58.7351 14.426 58.6081 14.593 58.4391 14.803C58.2081 15.307 58.0121 15.73 57.8511 16.072C57.6891 16.414 57.4961 16.8 57.2711 17.23C57.1251 17.405 57.0011 17.647 56.8991 17.956C56.7971 18.266 56.6951 18.566 56.5951 18.857C56.4361 19.181 56.2881 19.477 56.1521 19.746C56.0341 20.017 55.9731 20.19 55.9661 20.264C55.8001 20.662 55.6621 21.062 55.5521 21.464C55.4431 21.848 55.2921 22.182 55.0991 22.465C55.0561 22.742 54.9561 22.921 54.7991 23.001C54.6611 23.082 54.4421 23.016 54.1421 22.803ZM60.7691 23.832C60.4751 23.769 60.2571 23.694 60.1151 23.606C59.9741 23.5 59.7121 23.281 59.3291 22.947C59.1251 22.705 58.8491 22.334 58.4991 21.835C58.1491 21.336 57.8021 20.809 57.4571 20.254C57.1131 19.68 56.8281 19.196 56.6001 18.802L57.8781 17.367C58.0931 17.686 58.2641 17.982 58.3901 18.256C58.5161 18.529 58.6221 18.716 58.7071 18.817C59.0791 19.487 59.3691 20.028 59.5761 20.439C59.8031 20.853 60.0071 21.189 60.1911 21.449C60.3741 21.708 60.5691 21.941 60.7761 22.146C61.0021 22.353 61.2821 22.575 61.6181 22.81C61.6701 22.852 61.7211 22.913 61.7701 22.992C61.8201 23.071 61.8281 23.185 61.7971 23.332C61.7051 23.53 61.6091 23.653 61.5121 23.7C61.4341 23.731 61.1871 23.775 60.7691 23.832ZM56.5431 18.487C56.4591 18.162 56.5241 17.849 56.7381 17.549C56.9711 17.232 57.2151 17.019 57.4681 16.91C57.5541 16.786 57.6361 16.709 57.7131 16.679C57.8111 16.631 57.8721 16.571 57.8981 16.498C57.9411 16.427 58.0431 16.333 58.2031 16.215C58.3821 16.1 58.5411 15.992 58.6811 15.892C58.9951 15.732 59.3491 15.538 59.7441 15.31C60.1591 15.066 60.5551 14.819 60.9331 14.571C61.3111 14.323 61.6291 14.107 61.8891 13.924C62.1671 13.742 62.3371 13.626 62.3971 13.575C62.4601 13.505 62.5381 13.465 62.6331 13.455C62.7481 13.428 62.8851 13.458 63.0461 13.547C63.2651 13.623 63.4051 13.729 63.4681 13.865C63.5331 13.983 63.5511 14.21 63.5211 14.545C63.5591 14.754 63.4561 14.97 63.2121 15.192C62.9881 15.397 62.6491 15.621 62.1971 15.862C62.0401 15.942 61.8241 16.064 61.5471 16.227C61.2891 16.392 61.0601 16.55 60.8591 16.701C60.7231 16.764 60.5161 16.877 60.2391 17.04C59.9831 17.186 59.7541 17.335 59.5541 17.486C59.3971 17.566 59.1871 17.716 58.9241 17.937C58.6631 18.139 58.4061 18.285 58.1551 18.375C57.5111 18.881 57.0951 19.145 56.9051 19.166C56.7161 19.186 56.5951 18.96 56.5431 18.487ZM67.1021 23.487C66.7051 23.527 66.4521 23.533 66.3421 23.505C66.2521 23.459 66.1131 23.335 65.9251 23.131C65.6401 22.956 65.4051 22.748 65.2201 22.507C65.0541 22.268 64.9351 22.023 64.8631 21.773C64.8111 21.506 64.8021 21.29 64.8351 21.124C64.9481 20.478 65.1671 19.795 65.4931 19.074C65.8181 18.353 66.1971 17.664 66.6291 17.009C67.0611 16.353 67.5121 15.803 67.9821 15.356C68.4721 14.893 68.9281 14.605 69.3511 14.492C69.7351 14.376 70.0941 14.351 70.4251 14.418C70.7571 14.484 70.9831 14.682 71.1041 15.011C71.3361 15.575 71.2411 15.913 70.8181 16.026C70.7631 16.021 70.6951 16.044 70.6161 16.093C70.5381 16.124 70.4961 16.176 70.4901 16.25C70.5611 16.294 70.7651 16.321 71.1011 16.332C71.4391 16.324 71.7781 16.298 72.1201 16.253C72.4811 16.19 72.7221 16.118 72.8411 16.035C72.9581 15.989 73.0441 15.968 73.1001 15.973C73.1561 15.978 73.2931 16.009 73.5131 16.065C73.8211 16.186 73.9701 16.311 73.9581 16.441C73.9521 16.516 73.9731 16.593 74.0221 16.672C74.0731 16.733 74.1361 16.766 74.2101 16.773C74.3391 16.803 74.3131 16.885 74.1331 17.019C73.9711 17.155 73.6931 17.336 73.2981 17.564C72.9251 17.756 72.6891 17.886 72.5891 17.952C72.5101 18.001 72.4891 18.131 72.5271 18.34C72.6451 18.706 72.6191 19.116 72.4481 19.57C72.2771 20.023 72.0031 20.477 71.6261 20.931C71.2491 21.385 70.8001 21.805 70.2791 22.191C69.7781 22.559 69.2451 22.869 68.6801 23.119C68.1351 23.352 67.6091 23.475 67.1021 23.487ZM66.7351 22.218C66.8101 22.224 66.9431 22.199 67.1361 22.141C67.3301 22.064 67.4851 22.002 67.6011 21.956C67.6821 21.889 67.7831 21.813 67.9021 21.73C68.0421 21.63 68.1501 21.573 68.2261 21.561C68.3011 21.568 68.3961 21.548 68.5121 21.502C68.6301 21.437 68.8011 21.312 69.0231 21.125C69.2471 20.92 69.5451 20.618 69.9181 20.22C70.3251 19.843 70.6461 19.496 70.8801 19.18C71.1151 18.844 71.2001 18.524 71.1331 18.218C71.1211 18.142 71.0691 18.091 70.9771 18.064C70.9051 18.039 70.8061 17.983 70.6831 17.898C70.4971 17.881 70.3241 17.819 70.1651 17.712C70.0261 17.587 69.8621 17.432 69.6721 17.247L69.2741 16.65L68.7591 17.083C68.4351 17.354 68.0801 17.773 67.6931 18.339C67.3261 18.887 67.0051 19.459 66.7281 20.053C66.4531 20.629 66.2811 21.091 66.2131 21.441C66.1701 21.719 66.2001 21.909 66.3041 22.012C66.4071 22.114 66.5511 22.183 66.7351 22.218ZM75.5191 23.83C75.1551 23.929 74.8511 23.968 74.6101 23.947C74.3881 23.909 74.1471 23.775 73.8861 23.546C73.5621 23.181 73.4701 22.835 73.6111 22.51C73.7721 22.168 74.1091 21.851 74.6221 21.559C74.9741 21.384 75.2261 21.293 75.3761 21.288C75.5451 21.284 75.7911 21.371 76.1121 21.549C76.6391 21.951 76.8471 22.362 76.7351 22.784C76.6421 23.206 76.2371 23.555 75.5191 23.83ZM7.99512 44.009C7.53412 43.931 7.12212 43.811 6.76212 43.648C6.41812 43.506 5.99814 43.272 5.50214 42.948C4.91914 42.541 4.46214 42.089 4.13114 41.591C3.80014 41.094 3.51514 40.601 3.27714 40.111C3.18314 39.897 3.14514 39.697 3.16114 39.511C3.17914 39.306 3.26213 39.107 3.41013 38.914C3.51613 38.774 3.64012 38.635 3.78412 38.497C3.92712 38.36 4.07714 38.251 4.23414 38.171C4.50714 38.045 4.69711 38.015 4.80411 38.081C4.93111 38.129 5.09413 38.19 5.29413 38.264C5.45913 38.297 5.55814 38.353 5.58814 38.43C5.63814 38.51 5.66712 38.606 5.67512 38.719C5.70311 38.834 5.74613 38.978 5.80613 39.152C5.68013 39.31 5.55512 39.458 5.43012 39.597C5.30712 39.717 5.13913 39.815 4.92713 39.89C5.06513 40.24 5.23313 40.563 5.43213 40.862C5.65113 41.143 5.89114 41.399 6.15214 41.628C6.41114 41.875 6.76712 42.094 7.21912 42.283C7.69112 42.456 8.04212 42.514 8.27112 42.459C8.36812 42.43 8.46013 42.448 8.54813 42.512C8.65413 42.577 8.76612 42.587 8.88312 42.541C9.03512 42.517 9.20312 42.522 9.38712 42.557C9.59212 42.575 9.82014 42.539 10.0711 42.448C10.7201 42.318 11.3101 42.098 11.8431 41.788C12.3761 41.479 12.8601 41.09 13.2951 40.622C13.6681 40.205 13.9261 39.825 14.0691 39.481C14.2131 39.119 14.3171 38.679 14.3811 38.16C14.4461 37.847 14.4451 37.538 14.3781 37.232C14.3131 36.908 14.2471 36.593 14.1801 36.287C14.1561 36.135 14.0721 36.025 13.9281 35.956C13.8041 35.87 13.7001 35.777 13.6151 35.675C13.1971 35.526 12.8171 35.371 12.4751 35.21C12.1331 35.049 11.6751 35.037 11.1011 35.174C10.7951 35.241 10.5791 35.251 10.4521 35.202C10.3251 35.153 10.1471 35.053 9.91611 34.902C9.77211 34.833 9.64314 34.71 9.52714 34.531C9.41314 34.333 9.32714 34.139 9.26914 33.946C9.23014 33.755 9.25213 33.607 9.33613 33.502C9.44513 33.324 9.59514 33.216 9.78614 33.176C9.97914 33.118 10.1571 33.115 10.3211 33.167C10.5761 33.245 10.8281 33.267 11.0741 33.233C11.3221 33.179 11.5611 33.125 11.7911 33.071C11.9831 33.012 12.2471 32.895 12.5811 32.718C12.9151 32.541 13.2211 32.362 13.4991 32.18C13.7771 31.998 13.9171 31.898 13.9191 31.879C14.3701 31.432 14.7931 30.991 15.1871 30.557C15.5831 30.104 15.9201 29.572 16.1981 28.959C16.3711 28.693 16.4951 28.348 16.5701 27.923C16.6651 27.482 16.6521 27.087 16.5331 26.74C16.5121 26.55 16.3851 26.399 16.1511 26.285C15.9191 26.152 15.6741 26.065 15.4151 26.024C15.1581 25.964 14.9531 25.955 14.7991 25.998C14.5941 25.98 14.3011 26.01 13.9201 26.089C13.5561 26.17 13.2111 26.262 12.8841 26.364C12.5561 26.467 12.3521 26.552 12.2711 26.62C12.1921 26.669 12.0021 26.802 11.7021 27.02C11.4221 27.22 11.1311 27.448 10.8271 27.702C10.5441 27.94 10.3391 28.137 10.2131 28.295C10.1491 28.383 10.0421 28.43 9.89213 28.435C9.74113 28.441 9.59313 28.428 9.44514 28.396C9.31713 28.366 9.24412 28.341 9.22712 28.321C9.08412 28.027 9.01514 27.75 9.01914 27.488C9.02514 27.207 9.18314 26.902 9.49314 26.573C9.78114 26.28 10.0681 25.996 10.3541 25.721C10.6591 25.448 10.9971 25.225 11.3681 25.051C11.6601 24.927 11.9531 24.793 12.2471 24.65C12.5601 24.49 12.8701 24.377 13.1761 24.31C13.3671 24.27 13.6541 24.202 14.0371 24.104C14.4391 24.008 14.8411 24.015 15.2441 24.125C15.6681 24.2 15.9971 24.294 16.2311 24.409C16.4851 24.506 16.7241 24.658 16.9501 24.865C17.1771 25.053 17.4531 25.321 17.7791 25.668C18.0961 25.902 18.2861 26.303 18.3481 26.87C18.4131 27.419 18.3801 28.007 18.2501 28.633C18.1411 29.241 17.9551 29.759 17.6931 30.186C17.4761 30.523 17.2581 30.869 17.0401 31.225C16.8231 31.562 16.5711 31.877 16.2831 32.171C16.0961 32.379 15.8991 32.587 15.6941 32.794C15.5071 33.002 15.3121 33.201 15.1081 33.389C15.0861 33.424 14.9381 33.514 14.6631 33.659C14.3881 33.804 14.1451 33.895 13.9361 33.933C14.1341 34.025 14.3641 34.176 14.6271 34.387C14.8911 34.578 15.1261 34.786 15.3311 35.01C15.5571 35.218 15.6821 35.397 15.7061 35.549C16.0271 36.158 16.2111 36.839 16.2581 37.593C16.3061 38.328 16.1921 39.199 15.9171 40.205C15.7661 40.436 15.6141 40.666 15.4631 40.896C15.3131 41.108 15.1631 41.329 15.0111 41.559C14.7091 42.02 14.3791 42.366 14.0211 42.597C13.6641 42.828 13.2881 43.058 12.8931 43.285C12.5981 43.447 12.2951 43.589 11.9841 43.712C11.6741 43.835 11.3471 43.928 11.0041 43.991C10.4331 44.091 9.88613 44.137 9.36213 44.129C8.83613 44.139 8.38112 44.099 7.99512 44.009ZM16.3351 50.501C16.2611 50.494 16.1681 50.486 16.0561 50.476C15.9431 50.485 15.8471 50.402 15.7691 50.226C15.7021 50.127 15.6681 49.983 15.6661 49.796C15.6821 49.61 15.7581 49.279 15.8931 48.804C16.0141 48.496 16.1161 48.186 16.1991 47.875C16.2811 47.582 16.3291 47.362 16.3421 47.213C16.3481 47.139 16.3801 46.991 16.4361 46.772C16.5101 46.572 16.5511 46.426 16.5591 46.333C16.6651 46.192 16.7571 45.994 16.8361 45.738C16.9141 45.483 16.9631 45.253 16.9811 45.048C17.0001 44.825 17.1301 44.63 17.3691 44.464C17.3821 44.315 17.4261 44.132 17.5021 43.913C17.5951 43.697 17.6461 43.551 17.6521 43.477C17.7311 43.221 17.8911 42.776 18.1341 42.142C18.3971 41.49 18.7051 40.758 19.0571 39.946C19.4281 39.135 19.7881 38.342 20.1371 37.567C20.4861 36.792 20.7961 36.135 21.0681 35.597C21.3371 35.096 21.5241 34.662 21.6311 34.297C21.7591 33.914 21.8301 33.63 21.8461 33.444C21.8531 33.37 21.8761 33.316 21.9171 33.282C21.9591 33.229 22.0521 33.134 22.1951 32.997C22.3971 32.827 22.5601 32.785 22.6841 32.871C22.8261 32.959 22.9931 33.086 23.1841 33.252C23.3121 33.507 23.3961 33.72 23.4371 33.893C23.4971 34.067 23.4721 34.355 23.3621 34.757C23.3371 35.036 23.2701 35.274 23.1591 35.47C23.0481 35.667 22.9511 35.818 22.8661 35.923C22.7841 36.009 22.7621 36.045 22.8011 36.029C23.5941 35.743 24.2801 35.615 24.8581 35.647C25.4561 35.662 25.9401 35.807 26.3091 36.083C26.6991 36.342 26.9781 36.685 27.1471 37.112C27.3161 37.539 27.3771 38.022 27.3291 38.562C27.3101 38.785 27.2401 39.05 27.1191 39.358C27.0001 39.648 26.8551 39.916 26.6831 40.163C26.5321 40.394 26.3961 40.56 26.2741 40.662C26.2001 40.655 26.1201 40.714 26.0341 40.837C25.9501 40.943 25.8641 41.066 25.7771 41.208C25.6121 41.381 25.3511 41.574 24.9951 41.787C24.6601 41.982 24.3271 42.14 23.9981 42.261C23.6711 42.364 23.4351 42.381 23.2911 42.312C23.2911 42.312 23.2621 42.319 23.2051 42.333C23.1681 42.329 23.1451 42.374 23.1371 42.467C23.1341 42.504 22.9781 42.575 22.6691 42.679C22.3611 42.765 22.0081 42.846 21.6071 42.924C21.2091 42.982 20.8611 42.999 20.5631 42.973C20.1731 42.939 19.9001 42.84 19.7461 42.676C19.7051 42.71 19.6541 42.762 19.5921 42.832C19.5481 42.903 19.5241 42.966 19.5191 43.022C19.5091 43.133 19.4441 43.343 19.3231 43.651C19.2231 43.942 19.1051 44.222 18.9691 44.492C18.8331 44.761 18.7181 44.891 18.6251 44.883C18.6251 44.883 18.6041 44.909 18.5621 44.962C18.5201 45.014 18.5321 45.09 18.5981 45.19C18.5981 45.19 18.5801 45.291 18.5441 45.494C18.5241 45.717 18.4611 45.899 18.3551 46.04C18.3421 46.189 18.2951 46.409 18.2131 46.702C18.1311 46.995 18.0471 47.212 17.9591 47.354C17.9401 47.578 17.8841 47.788 17.7921 47.986C17.7161 48.205 17.6411 48.31 17.5671 48.304C17.4911 48.316 17.4351 48.424 17.3981 48.626C17.3601 48.848 17.3371 49.005 17.3291 49.098C17.2701 49.561 17.1451 49.916 16.9551 50.162C16.7651 50.407 16.5581 50.52 16.3351 50.501ZM20.5251 41.48C20.6741 41.493 20.9861 41.455 21.4631 41.365C21.9391 41.276 22.4271 41.159 22.9271 41.015C23.4471 40.855 23.8371 40.683 24.0961 40.499C24.6171 40.114 25.0311 39.663 25.3391 39.146C25.6671 38.613 25.6941 38.081 25.4221 37.552C25.2961 37.278 25.0351 37.152 24.6401 37.174C24.2461 37.177 23.8061 37.288 23.3181 37.508C22.8301 37.728 22.3651 38.015 21.9221 38.37C21.6771 38.592 21.4471 38.871 21.2301 39.209C21.0131 39.546 20.8241 39.885 20.6631 40.227C20.5201 40.571 20.4291 40.862 20.3891 41.102C20.3501 41.343 20.3951 41.468 20.5251 41.48ZM26.5951 50.696C26.1381 50.787 25.6431 50.762 25.1121 50.622C24.5981 50.502 24.1561 50.304 23.7871 50.029C23.3991 49.751 23.1901 49.461 23.1601 49.159C23.1511 49.045 23.1991 48.928 23.3041 48.806C23.3891 48.682 23.5001 48.598 23.6351 48.554C23.7501 48.526 23.8491 48.572 23.9321 48.692C24.0731 48.798 24.3321 48.933 24.7121 49.098C25.0891 49.281 25.5241 49.347 26.0151 49.296C26.4511 49.24 26.8911 49.026 27.3361 48.653C27.8001 48.281 28.1771 47.93 28.4681 47.599C28.6371 47.389 28.9231 47.011 29.3261 46.466C29.7301 45.92 30.1481 45.32 30.5801 44.664C31.0331 43.992 31.4151 43.369 31.7271 42.797C31.7961 42.653 31.8771 42.482 31.9691 42.284C32.0611 42.086 32.1691 41.927 32.2921 41.807C32.4231 41.593 32.5341 41.397 32.6241 41.217C32.7351 41.021 32.8031 40.886 32.8281 40.814C32.8551 40.722 32.9551 40.544 33.1281 40.278C33.3011 40.012 33.4651 39.745 33.6201 39.477C33.7371 39.207 33.9121 38.81 34.1461 38.287C34.3791 37.764 34.6031 37.343 34.8181 37.025C35.0791 36.616 35.2861 36.288 35.4381 36.039C35.6121 35.773 35.7841 35.619 35.9571 35.578C36.1351 35.463 36.2531 35.407 36.3081 35.412C36.3831 35.419 36.5171 35.487 36.7121 35.616C36.9161 35.859 37.0361 36.094 37.0721 36.322C37.1101 36.532 37.0591 36.79 36.9201 37.096C36.8011 37.385 36.5791 37.778 36.2551 38.274C36.0671 38.708 35.8641 39.102 35.6451 39.458C35.4471 39.797 35.2961 40.018 35.1941 40.121C35.0811 40.336 34.9481 40.577 34.7931 40.845C34.6591 41.095 34.5351 41.328 34.4231 41.543C34.0231 42.258 33.6821 42.837 33.4001 43.281C33.1171 43.724 32.8661 44.133 32.6461 44.508C32.4261 44.882 32.1901 45.32 31.9401 45.823C31.4521 46.474 30.9771 47.088 30.5141 47.666C30.0691 48.264 29.5991 48.813 29.1051 49.313C28.9051 49.464 28.6551 49.639 28.3571 49.838C28.0581 50.037 27.7521 50.216 27.4381 50.376C27.1431 50.538 26.8621 50.644 26.5951 50.696ZM30.9471 44.331C30.6711 44.269 30.4071 44.078 30.1541 43.756C29.9191 43.435 29.7431 43.101 29.6231 42.754C29.5041 42.406 29.4691 42.159 29.5191 42.014C29.5271 41.921 29.5341 41.846 29.5391 41.791C29.5441 41.735 29.5461 41.707 29.5461 41.707C29.4341 41.697 29.3441 41.549 29.2761 41.262C29.2261 40.976 29.2021 40.609 29.2041 40.159C29.2051 39.71 29.2191 39.233 29.2441 38.729C29.2881 38.227 29.3481 37.755 29.4251 37.312C29.5271 37.002 29.5941 36.661 29.6271 36.289C29.6611 35.899 29.6971 35.593 29.7351 35.371C29.7421 35.072 29.7871 34.879 29.8701 34.793C29.9541 34.688 30.0361 34.611 30.1151 34.561C30.6551 34.384 30.9871 34.553 31.1101 35.07C31.2541 35.57 31.2211 36.485 31.0111 37.816C30.9081 38.556 30.8431 39.3 30.8161 40.047C30.7881 40.794 30.8331 41.454 30.9521 42.027C31.0891 42.601 31.3061 43.004 31.6051 43.236C31.7281 43.322 31.7841 43.43 31.7731 43.56C31.7621 43.69 31.7121 43.826 31.6251 43.969C31.5391 44.092 31.4271 44.195 31.2891 44.276C31.1711 44.341 31.0571 44.359 30.9471 44.331ZM43.9231 44.061C44.0411 43.996 44.1491 43.94 44.2461 43.892C44.3651 43.828 44.4621 43.78 44.5401 43.749C44.7531 43.674 44.8841 43.676 44.9331 43.756C45.0011 43.837 45.0281 43.951 45.0151 44.1C45.0091 44.175 44.9921 44.257 44.9651 44.349C44.9391 44.44 44.9231 44.514 44.9181 44.569C44.9131 44.625 44.9071 44.69 44.9011 44.765C44.9131 44.841 44.9071 44.915 44.8811 44.988C44.8311 45.133 44.7251 45.274 44.5631 45.41C44.4021 45.546 44.2241 45.652 44.0301 45.728C43.8361 45.805 43.6461 45.835 43.4601 45.819C43.2181 45.798 43.0301 45.697 42.8961 45.517C42.5931 45.34 42.3891 45.098 42.2851 44.789C42.1811 44.48 42.1361 44.139 42.1501 43.765C42.2021 43.17 42.3581 42.556 42.6201 41.923C42.9021 41.273 43.1511 40.78 43.3681 40.443C43.3511 40.422 43.3331 40.412 43.3141 40.41C43.3161 40.391 43.3081 40.372 43.2911 40.352C42.7201 40.883 42.1381 41.328 41.5441 41.688C40.9521 42.03 40.3041 42.367 39.6011 42.699C39.5261 42.692 39.4431 42.685 39.3501 42.677C39.2751 42.67 39.1921 42.663 39.0991 42.655C38.8941 42.637 38.7281 42.604 38.6021 42.555C38.4951 42.49 38.3741 42.376 38.2381 42.214C38.0331 41.99 37.8961 41.735 37.8271 41.448C37.7791 41.144 37.7681 40.843 37.7941 40.545C37.8641 39.952 38.0491 39.34 38.3481 38.711C38.6481 38.062 38.9731 37.454 39.3231 36.885C39.6741 36.297 39.9501 35.815 40.1521 35.439C40.3851 35.347 40.5811 35.346 40.7421 35.435C40.9031 35.524 41.0401 35.676 41.1521 35.892C41.2641 36.108 41.3551 36.36 41.4231 36.647C41.3041 36.936 41.1311 37.202 40.9041 37.445C40.6761 37.687 40.4931 37.961 40.3541 38.268C40.1881 38.665 39.9881 39.126 39.7551 39.649C39.5421 40.155 39.4261 40.632 39.4051 41.08C39.5561 41.074 39.8161 40.985 40.1881 40.811C40.5601 40.619 40.9751 40.383 41.4301 40.104C41.8851 39.826 42.3411 39.538 42.7981 39.24C43.2551 38.943 43.6541 38.669 43.9951 38.418C44.3371 38.148 44.5611 37.942 44.6671 37.802C44.7531 37.678 44.8321 37.517 44.9061 37.317C44.9981 37.119 45.0861 36.977 45.1681 36.89C45.4381 36.595 45.7001 36.487 45.9561 36.565C46.2131 36.625 46.4241 36.784 46.5881 37.042C46.7551 37.282 46.8351 37.542 46.8291 37.822C46.6171 38.104 46.3381 38.51 45.9921 39.042C45.6471 39.555 45.3071 40.125 44.9711 40.752C44.6351 41.378 44.3571 41.981 44.1381 42.562C43.9371 43.144 43.8651 43.644 43.9231 44.061ZM48.8951 46.407C48.7681 46.359 48.5951 46.306 48.3751 46.249C48.1551 46.192 47.9561 46.109 47.7781 46C47.6211 45.874 47.5491 45.727 47.5641 45.56C47.5771 45.411 47.5971 45.282 47.6261 45.172C47.6741 45.045 47.7581 44.94 47.8781 44.857C47.9001 44.821 47.9121 44.794 47.9131 44.775C47.9151 44.757 47.9261 44.739 47.9461 44.722C47.9541 44.629 47.9431 44.544 47.9121 44.466C47.8821 44.388 47.8901 44.295 47.9371 44.187C48.0291 43.989 48.0991 43.827 48.1481 43.7C48.2171 43.556 48.2611 43.372 48.2811 43.149C48.2841 43.112 48.2871 43.075 48.2901 43.038C48.2951 42.982 48.3091 42.936 48.3301 42.901C48.5151 42.504 48.6721 42.097 48.8031 41.677C48.9331 41.257 49.1081 40.861 49.3291 40.486C49.5941 40.022 49.9381 39.415 50.3591 38.665C50.7821 37.897 51.1441 37.188 51.4451 36.54C51.5371 36.342 51.6321 36.219 51.7301 36.171C51.8481 36.107 51.9711 36.089 52.1001 36.119C52.3211 36.157 52.5331 36.307 52.7351 36.568C52.9391 36.811 53.0891 37.021 53.1861 37.198C52.9691 37.535 52.7091 37.934 52.4071 38.395C52.1241 38.838 51.8521 39.274 51.5901 39.7C51.3481 40.11 51.1681 40.451 51.0511 40.721C51.3091 40.763 51.6161 40.79 51.9711 40.802C52.3461 40.797 52.7091 40.829 53.0591 40.897C53.4651 40.97 53.8271 41.002 54.1471 40.992C54.4661 40.983 54.8241 40.967 55.2191 40.945C55.3361 40.675 55.4571 40.367 55.5811 40.022C55.7231 39.678 55.8671 39.325 56.0111 38.963C56.1731 38.602 56.3621 38.272 56.5751 37.972C56.7891 37.673 57.0421 37.451 57.3361 37.308C57.4881 37.284 57.6001 37.294 57.6711 37.337C57.7441 37.363 57.8411 37.427 57.9631 37.532C58.1881 37.739 58.3521 37.903 58.4541 38.024C58.5761 38.129 58.6131 38.244 58.5641 38.371C58.5151 38.498 58.3761 38.701 58.1451 38.981C57.9971 39.174 57.8831 39.408 57.8031 39.682C57.7241 39.937 57.6031 40.152 57.4381 40.324C57.3971 40.358 57.3081 40.519 57.1701 40.807C57.0331 41.095 56.8711 41.446 56.6851 41.861C56.4991 42.275 56.3121 42.69 56.1261 43.105C55.9401 43.519 55.7771 43.88 55.6381 44.186C55.5171 44.494 55.4551 44.676 55.4501 44.732C55.4101 44.972 55.3511 45.22 55.2721 45.475C55.1951 45.712 55.1461 45.961 55.1231 46.221C55.1101 46.37 55.0541 46.477 54.9541 46.544C54.8751 46.593 54.7701 46.612 54.6401 46.601C54.4541 46.584 54.2531 46.52 54.0381 46.407C53.8231 46.295 53.6631 46.197 53.5581 46.112C53.4891 46.05 53.4321 45.951 53.3871 45.816C53.3621 45.683 53.3441 45.569 53.3331 45.474C53.4851 45.019 53.6541 44.594 53.8381 44.198C54.0431 43.784 54.2301 43.36 54.3991 42.926C54.4431 42.854 54.4681 42.782 54.4751 42.707C54.4811 42.633 54.4691 42.557 54.4381 42.479C53.8331 42.333 53.2111 42.26 52.5741 42.26C51.9371 42.26 51.3101 42.252 50.6931 42.236C50.5921 42.321 50.4611 42.534 50.3001 42.876C50.1591 43.201 50.0261 43.545 49.9001 43.909C49.7771 44.254 49.6791 44.518 49.6071 44.699C49.6141 44.83 49.5791 45.015 49.5021 45.252C49.4251 45.488 49.3291 45.724 49.2151 45.957C49.1031 46.172 48.9961 46.322 48.8951 46.407ZM61.9591 47.128C61.5621 47.169 61.3091 47.175 61.1991 47.146C61.1091 47.101 60.9701 46.976 60.7821 46.773C60.4981 46.598 60.2631 46.39 60.0781 46.149C59.9111 45.909 59.7921 45.665 59.7201 45.415C59.6691 45.148 59.6601 44.932 59.6931 44.766C59.8051 44.12 60.0251 43.436 60.3501 42.715C60.6751 41.994 61.0541 41.306 61.4861 40.651C61.9181 39.995 62.3691 39.444 62.8391 38.998C63.3301 38.535 63.7861 38.247 64.2081 38.134C64.5931 38.018 64.9511 37.993 65.2831 38.06C65.6141 38.126 65.8401 38.324 65.9611 38.653C66.1931 39.217 66.0981 39.555 65.6761 39.668C65.6201 39.663 65.5531 39.685 65.4731 39.735C65.3961 39.765 65.3541 39.818 65.3471 39.892C65.4181 39.936 65.6221 39.963 65.9581 39.974C66.2961 39.966 66.6361 39.939 66.9771 39.894C67.3391 39.832 67.5791 39.76 67.6991 39.676C67.8151 39.63 67.9011 39.61 67.9571 39.615C68.0131 39.62 68.1511 39.65 68.3711 39.707C68.6791 39.828 68.8271 39.953 68.8161 40.083C68.8091 40.158 68.8301 40.234 68.8801 40.314C68.9311 40.374 68.9931 40.408 69.0681 40.414C69.1961 40.444 69.1701 40.526 68.9901 40.661C68.8281 40.796 68.5501 40.978 68.1551 41.206C67.7821 41.398 67.5461 41.527 67.4471 41.594C67.3671 41.643 67.3471 41.772 67.3851 41.982C67.5031 42.348 67.4761 42.758 67.3051 43.211C67.1341 43.665 66.8601 44.119 66.4831 44.573C66.1061 45.027 65.6571 45.447 65.1371 45.832C64.6361 46.201 64.1031 46.51 63.5381 46.761C62.9921 46.994 62.4661 47.117 61.9591 47.128ZM61.5931 45.86C61.6671 45.866 61.8001 45.84 61.9931 45.782C62.1871 45.706 62.3421 45.644 62.4591 45.598C62.5401 45.53 62.6401 45.455 62.7601 45.372C62.9001 45.271 63.0081 45.215 63.0841 45.203C63.1581 45.21 63.2531 45.19 63.3701 45.144C63.4881 45.079 63.6581 44.954 63.8811 44.767C64.1051 44.562 64.4031 44.26 64.7751 43.861C65.1831 43.485 65.5031 43.138 65.7371 42.821C65.9731 42.486 66.0571 42.165 65.9901 41.86C65.9781 41.784 65.9261 41.732 65.8351 41.706C65.7621 41.681 65.6641 41.625 65.5401 41.539C65.3541 41.523 65.1821 41.461 65.0221 41.353C64.8831 41.229 64.7191 41.074 64.5291 40.889L64.1321 40.292L63.6161 40.724C63.2921 40.996 62.9371 41.415 62.5501 41.98C62.1841 42.529 61.8621 43.101 61.5851 43.695C61.3101 44.27 61.1381 44.733 61.0701 45.083C61.0271 45.361 61.0581 45.551 61.1611 45.653C61.2641 45.756 61.4081 45.825 61.5931 45.86ZM70.3771 47.471C70.0121 47.571 69.7091 47.61 69.4671 47.589C69.2461 47.55 69.0041 47.417 68.7431 47.188C68.4191 46.822 68.3281 46.477 68.4681 46.152C68.6301 45.81 68.9661 45.493 69.4791 45.201C69.8321 45.025 70.0831 44.935 70.2341 44.929C70.4031 44.925 70.6481 45.012 70.9701 45.19C71.4971 45.593 71.7041 46.004 71.5931 46.425C71.4991 46.848 71.0941 47.197 70.3771 47.471ZM0.476141 67.949C0.247141 67.779 0.130128 67.619 0.125128 67.469C0.117128 67.337 0.187128 67.081 0.332128 66.7C0.335128 66.456 0.364134 66.234 0.419134 66.033C0.493134 65.833 0.542114 65.697 0.567114 65.624C0.660114 65.632 0.72112 65.581 0.74912 65.471C0.77712 65.361 0.795122 65.269 0.801122 65.195C0.814122 65.046 0.892131 64.8 1.03513 64.456C1.19613 64.115 1.33912 63.762 1.46412 63.398C1.64612 63.039 1.81512 62.707 1.97312 62.402C2.15112 62.081 2.24413 61.883 2.25013 61.808C2.26313 61.66 2.31313 61.514 2.40113 61.372C2.49013 61.211 2.58712 61.06 2.69312 60.92C2.80612 60.705 2.89212 60.469 2.95212 60.211C3.03212 59.937 3.07914 59.726 3.09214 59.577C3.22414 59.345 3.36814 59.095 3.52314 58.828C3.67714 58.56 3.80513 58.281 3.90513 57.99C4.04413 57.684 4.24212 57.242 4.49912 56.665C4.77612 56.071 5.06311 55.468 5.36011 54.857C5.55811 54.518 5.75814 54.161 5.95914 53.785C6.16114 53.409 6.33912 53.088 6.49412 52.82C6.64812 52.552 6.75312 52.421 6.80912 52.426C6.80912 52.426 6.81214 52.398 6.81614 52.342C6.82314 52.268 6.82913 52.194 6.83613 52.119C6.84413 52.026 6.93414 51.856 7.10514 51.609C7.27914 51.343 7.44313 51.067 7.60013 50.781C7.81013 50.518 7.96314 50.269 8.05814 50.034C8.15614 49.78 8.20414 49.653 8.20414 49.653C8.20414 49.653 8.23713 49.6 8.30213 49.493C8.38713 49.388 8.46912 49.301 8.55012 49.234C8.80612 49.087 9.03512 49.042 9.23612 49.097C9.45612 49.154 9.62711 49.347 9.74811 49.676C9.87111 49.986 9.91414 50.243 9.87714 50.446C9.84214 50.63 9.74113 50.827 9.57313 51.038C9.39513 51.359 9.16213 51.77 8.87513 52.269C8.58913 52.75 8.28114 53.276 7.95014 53.847C7.63914 54.4 7.33912 54.936 7.05012 55.454C6.78112 55.956 6.55611 56.395 6.37311 56.772C6.21011 57.133 6.12412 57.36 6.11612 57.453L4.72614 60.17C4.72314 60.207 4.67812 60.297 4.59012 60.439C4.52112 60.583 4.41813 60.799 4.28113 61.087C4.16213 61.376 4.00714 61.756 3.81614 62.226C3.62414 62.697 3.39712 63.267 3.13212 63.937C2.65612 65.095 2.28614 65.999 2.02314 66.651C1.76214 67.284 1.55512 67.716 1.40412 67.946C1.27012 68.197 1.13712 68.316 1.00712 68.305C0.933116 68.298 0.852119 68.254 0.766119 68.171C0.696119 68.109 0.600141 68.035 0.476141 67.949ZM10.3031 69.034C10.1341 69.038 9.90912 68.934 9.62812 68.722C9.36312 68.53 9.07513 68.289 8.76313 68C8.47013 67.712 8.18712 67.415 7.91312 67.11C7.65912 66.807 7.45714 66.545 7.30814 66.326C7.04714 65.873 6.72414 65.282 6.33814 64.555C5.95414 63.809 5.68514 63.027 5.53214 62.208C5.45414 61.601 5.36413 61.125 5.26313 60.779C5.16413 60.414 5.10514 60.119 5.08814 59.892L5.28711 57.942L6.67014 58.513C6.67514 59.525 6.74112 60.374 6.86912 61.06C7.01612 61.729 7.20812 62.326 7.44312 62.853C7.62412 63.356 7.83213 63.861 8.06913 64.369C8.30713 64.859 8.57114 65.275 8.85914 65.619C9.24614 66.121 9.59712 66.499 9.91212 66.751C10.2281 67.003 10.4691 67.137 10.6361 67.152C10.7281 67.178 10.8521 67.255 11.0101 67.381C11.1861 67.509 11.3431 67.644 11.4801 67.788C11.6381 67.914 11.7211 68.033 11.7301 68.147C11.7431 68.204 11.7451 68.289 11.7361 68.4C11.7241 68.53 11.6961 68.64 11.6511 68.73C11.6221 68.84 11.5871 68.921 11.5451 68.974C11.4781 69.099 11.3661 69.202 11.2091 69.282C11.0691 69.382 10.7671 69.299 10.3031 69.034ZM4.96012 58.139L7.12613 56.838C7.18613 56.787 7.39814 56.619 7.76014 56.332C8.14114 56.047 8.75814 55.641 9.60914 55.116L13.2841 52.627C13.7701 52.426 14.2711 52.161 14.7871 51.831C15.3221 51.503 15.7271 51.267 16.0021 51.122C16.3371 50.927 16.6331 50.756 16.8901 50.61C17.1461 50.463 17.3111 50.403 17.3831 50.428C17.5391 50.367 17.6851 50.408 17.8221 50.551C17.9801 50.677 18.0961 50.846 18.1711 51.059C18.2671 51.255 18.2991 51.426 18.2671 51.573C18.2881 51.763 18.2371 51.917 18.1141 52.038C17.9911 52.158 17.7051 52.321 17.2561 52.525C16.8881 52.661 16.5581 52.801 16.2641 52.944C15.9891 53.089 15.8191 53.214 15.7531 53.321C15.7531 53.321 15.5641 53.445 15.1871 53.693C14.8291 53.924 14.3641 54.202 13.7931 54.527C13.0061 54.945 12.3251 55.344 11.7481 55.725C11.1901 56.107 10.8271 56.403 10.6591 56.613C10.5841 56.607 10.5081 56.628 10.4281 56.678C10.3681 56.728 10.3011 56.741 10.2281 56.716C10.2281 56.716 10.1501 56.756 9.99314 56.836C9.85514 56.918 9.74411 57.002 9.66212 57.088C9.61612 57.178 9.52114 57.301 9.37613 57.457C9.25013 57.614 9.09514 57.676 8.91114 57.641C8.77414 57.704 8.52812 57.842 8.17212 58.054C7.81812 58.248 7.44212 58.468 7.04612 58.715C6.66812 58.963 6.33912 59.187 6.06012 59.387C5.78012 59.588 5.62912 59.705 5.60712 59.741L4.96012 58.139ZM13.2081 74.319C13.1341 74.312 13.0411 74.304 12.9291 74.295C12.8161 74.303 12.7201 74.22 12.6421 74.045C12.5761 73.945 12.5411 73.802 12.5391 73.614C12.5551 73.428 12.6311 73.097 12.7661 72.622C12.8871 72.314 12.9891 72.004 13.0721 71.693C13.1541 71.401 13.2021 71.18 13.2151 71.031C13.2211 70.957 13.2531 70.81 13.3101 70.59C13.3831 70.39 13.4241 70.244 13.4321 70.151C13.5381 70.01 13.6311 69.812 13.7091 69.557C13.7881 69.301 13.8361 69.071 13.8541 68.867C13.8731 68.643 14.0031 68.449 14.2421 68.282C14.2551 68.133 14.2991 67.95 14.3751 67.732C14.4691 67.515 14.5191 67.369 14.5251 67.295C14.6041 67.04 14.7651 66.595 15.0071 65.96C15.2711 65.308 15.5781 64.576 15.9301 63.764C16.3011 62.953 16.6611 62.16 17.0101 61.385C17.3591 60.61 17.6691 59.953 17.9411 59.415C18.2101 58.914 18.3981 58.48 18.5051 58.115C18.6321 57.733 18.7031 57.448 18.7201 57.262C18.7261 57.188 18.7501 57.134 18.7901 57.1C18.8321 57.047 18.9251 56.952 19.0681 56.815C19.2701 56.645 19.4331 56.603 19.5571 56.689C19.6991 56.777 19.8661 56.904 20.0571 57.07C20.1851 57.325 20.2691 57.539 20.3111 57.711C20.3701 57.885 20.3451 58.173 20.2351 58.576C20.2111 58.854 20.1431 59.092 20.0321 59.289C19.9211 59.485 19.8241 59.636 19.7401 59.741C19.6571 59.827 19.6351 59.863 19.6741 59.847C20.4671 59.561 21.1531 59.433 21.7311 59.465C22.3291 59.48 22.8131 59.626 23.1831 59.901C23.5721 60.16 23.8511 60.503 24.0201 60.93C24.1891 61.357 24.2501 61.841 24.2031 62.38C24.1831 62.603 24.1131 62.868 23.9921 63.176C23.8731 63.466 23.7281 63.734 23.5561 63.982C23.4051 64.212 23.2691 64.378 23.1471 64.48C23.0731 64.473 22.9931 64.532 22.9071 64.656C22.8231 64.761 22.7371 64.884 22.6501 65.027C22.4851 65.199 22.2241 65.392 21.8691 65.605C21.5331 65.8 21.2011 65.958 20.8711 66.08C20.5441 66.182 20.3081 66.199 20.1641 66.13C20.1641 66.13 20.1361 66.137 20.0781 66.151C20.0411 66.147 20.0181 66.192 20.0101 66.285C20.0071 66.322 19.8511 66.393 19.5421 66.497C19.2351 66.583 18.8811 66.664 18.4811 66.742C18.0821 66.8 17.7341 66.817 17.4361 66.791C17.0461 66.757 16.7731 66.658 16.6191 66.494C16.5791 66.528 16.5271 66.58 16.4651 66.65C16.4211 66.721 16.3971 66.784 16.3921 66.84C16.3821 66.952 16.3171 67.161 16.1961 67.469C16.0961 67.76 15.9781 68.04 15.8421 68.31C15.7061 68.579 15.5911 68.709 15.4981 68.701C15.4981 68.701 15.4771 68.727 15.4351 68.78C15.3931 68.833 15.4051 68.909 15.4721 69.008C15.4721 69.008 15.4531 69.11 15.4171 69.312C15.3971 69.536 15.3351 69.717 15.2291 69.858C15.2161 70.007 15.1681 70.228 15.0861 70.52C15.0051 70.813 14.9201 71.03 14.8331 71.173C14.8131 71.396 14.7571 71.606 14.6651 71.804C14.5891 72.023 14.5151 72.129 14.4401 72.122C14.3641 72.134 14.3081 72.242 14.2721 72.445C14.2331 72.666 14.2101 72.823 14.2021 72.916C14.1431 73.38 14.0181 73.734 13.8281 73.98C13.6381 74.225 13.4311 74.339 13.2081 74.319ZM17.3981 65.298C17.5471 65.311 17.8601 65.273 18.3361 65.183C18.8121 65.094 19.3001 64.977 19.8001 64.833C20.3201 64.673 20.7101 64.501 20.9691 64.317C21.4901 63.932 21.9041 63.481 22.2121 62.965C22.5401 62.431 22.5671 61.899 22.2951 61.37C22.1691 61.096 21.9091 60.97 21.5131 60.992C21.1191 60.995 20.6791 61.106 20.1911 61.326C19.7031 61.546 19.2381 61.833 18.7951 62.188C18.5501 62.41 18.3201 62.69 18.1031 63.027C17.8861 63.364 17.6971 63.703 17.5361 64.045C17.3941 64.389 17.3021 64.68 17.2631 64.921C17.2231 65.161 17.2681 65.286 17.3981 65.298ZM23.4691 74.514C23.0111 74.605 22.5161 74.581 21.9851 74.44C21.4711 74.32 21.0291 74.123 20.6601 73.847C20.2721 73.569 20.0631 73.279 20.0331 72.977C20.0251 72.864 20.0721 72.746 20.1771 72.624C20.2631 72.5 20.3731 72.416 20.5081 72.372C20.6231 72.344 20.7221 72.391 20.8051 72.51C20.9461 72.616 21.2061 72.751 21.5851 72.916C21.9621 73.099 22.3971 73.165 22.8881 73.114C23.3241 73.059 23.7651 72.844 24.2091 72.471C24.6731 72.099 25.0501 71.748 25.3421 71.417C25.5101 71.207 25.7961 70.829 26.2001 70.284C26.6031 69.738 27.0211 69.138 27.4531 68.482C27.9061 67.81 28.2881 67.187 28.6001 66.615C28.6691 66.471 28.7501 66.3 28.8421 66.102C28.9341 65.904 29.0421 65.745 29.1651 65.625C29.2961 65.411 29.4071 65.215 29.4981 65.035C29.6081 64.839 29.6761 64.704 29.7021 64.632C29.7281 64.54 29.8281 64.362 30.0011 64.096C30.1751 63.83 30.3381 63.563 30.4931 63.296C30.6101 63.025 30.7861 62.628 31.0191 62.105C31.2521 61.582 31.4761 61.161 31.6911 60.843C31.9521 60.434 32.1591 60.106 32.3121 59.857C32.4851 59.591 32.6571 59.437 32.8301 59.396C33.0081 59.281 33.1261 59.225 33.1821 59.23C33.2561 59.237 33.3911 59.305 33.5851 59.434C33.7891 59.677 33.9091 59.912 33.9451 60.14C33.9831 60.35 33.9321 60.608 33.7931 60.914C33.6741 61.203 33.4521 61.596 33.1281 62.093C32.9401 62.526 32.7371 62.92 32.5181 63.276C32.3201 63.615 32.1701 63.836 32.0671 63.939C31.9541 64.154 31.8211 64.395 31.6661 64.663C31.5321 64.914 31.4091 65.146 31.2961 65.361C30.8961 66.076 30.5551 66.655 30.2731 67.099C29.9901 67.543 29.7391 67.952 29.5191 68.326C29.2991 68.7 29.0641 69.139 28.8141 69.641C28.3261 70.292 27.8501 70.906 27.3881 71.484C26.9421 72.082 26.4721 72.631 25.9791 73.131C25.7781 73.283 25.5281 73.457 25.2301 73.656C24.9321 73.855 24.6251 74.034 24.3121 74.194C24.0161 74.356 23.7351 74.462 23.4691 74.514ZM27.8201 68.149C27.5441 68.087 27.2801 67.896 27.0271 67.574C26.7931 67.253 26.6161 66.919 26.4961 66.572C26.3771 66.224 26.3421 65.977 26.3921 65.832C26.4001 65.739 26.4071 65.664 26.4121 65.609C26.4171 65.553 26.4191 65.525 26.4191 65.525C26.3081 65.515 26.2181 65.367 26.1491 65.08C26.0991 64.794 26.0751 64.427 26.0771 63.977C26.0791 63.528 26.0921 63.051 26.1181 62.547C26.1611 62.045 26.2221 61.573 26.2981 61.13C26.4001 60.82 26.4671 60.479 26.5001 60.107C26.5341 59.717 26.5701 59.411 26.6081 59.189C26.6161 58.89 26.6611 58.697 26.7431 58.611C26.8271 58.506 26.9091 58.429 26.9881 58.379C27.5281 58.202 27.8601 58.371 27.9841 58.888C28.1271 59.388 28.0941 60.303 27.8841 61.634C27.7821 62.374 27.7171 63.118 27.6891 63.865C27.6611 64.612 27.7061 65.272 27.8251 65.845C27.9621 66.419 28.1801 66.822 28.4781 67.054C28.6011 67.14 28.6581 67.248 28.6461 67.378C28.6351 67.508 28.5851 67.644 28.4981 67.787C28.4121 67.91 28.3001 68.013 28.1621 68.095C28.0441 68.159 27.9301 68.177 27.8201 68.149ZM34.9181 68.882C34.8691 68.803 34.8211 68.705 34.7751 68.589C34.7471 68.474 34.7371 68.379 34.7441 68.305C34.7471 68.268 34.7421 68.221 34.7281 68.163C34.7331 68.107 34.6981 68.076 34.6241 68.07C34.5731 68.009 34.6291 67.798 34.7911 67.438C34.9741 67.06 35.1991 66.63 35.4661 66.148C35.7521 65.667 36.0361 65.205 36.3181 64.761C36.6211 64.3 36.8681 63.938 37.0601 63.673C37.1581 63.626 37.2201 63.556 37.2471 63.465C37.2941 63.356 37.2991 63.301 37.2621 63.297C37.2621 63.297 37.3151 63.218 37.4231 63.059C37.5511 62.882 37.6451 62.769 37.7061 62.718C37.8771 62.471 38.0121 62.22 38.1091 61.966C38.2081 61.694 38.2471 61.463 38.2261 61.274C38.1591 61.174 38.0781 61.139 37.9821 61.168C37.8861 61.197 37.8381 61.212 37.8381 61.212C37.7621 61.224 37.6471 61.251 37.4931 61.294C37.3601 61.32 37.2341 61.365 37.1161 61.43C36.6621 61.69 36.3621 61.804 36.2151 61.772C36.0691 61.722 35.9231 61.466 35.7761 61.003C35.7191 60.792 35.7051 60.641 35.7311 60.55C35.7581 60.458 35.8411 60.362 35.9811 60.262C36.1411 60.145 36.2881 60.074 36.4221 60.048C36.5571 60.003 36.6641 59.957 36.7431 59.907C36.9591 59.795 37.1341 59.717 37.2701 59.672C37.4231 59.63 37.5381 59.602 37.6141 59.59C38.1111 59.484 38.5221 59.491 38.8491 59.614C39.1751 59.736 39.4051 60 39.5381 60.405C39.7711 60.744 39.8691 61.118 39.8341 61.527C39.8001 61.917 39.6291 62.362 39.3241 62.859L39.0081 63.253C38.8991 63.431 38.8721 63.523 38.9281 63.528C39.0021 63.534 39.0921 63.476 39.1961 63.354C39.2581 63.285 39.3801 63.183 39.5601 63.049C39.7401 62.915 39.8581 62.85 39.9141 62.855C39.9141 62.855 39.9341 62.847 39.9721 62.832C40.0301 62.818 40.0641 62.746 40.0761 62.616C40.1361 62.565 40.1971 62.514 40.2581 62.463C40.3371 62.414 40.3771 62.389 40.3771 62.389C40.4511 62.396 40.5981 62.325 40.8171 62.175C41.0561 62.009 41.3351 61.818 41.6541 61.602C41.8721 61.471 42.0641 61.413 42.2311 61.427C42.6711 61.335 43.0021 61.504 43.2271 61.936C43.4701 62.37 43.5631 62.912 43.5061 63.563L42.7891 65.018L43.9001 63.878C44.0251 63.739 44.1481 63.619 44.2691 63.517C44.4091 63.417 44.5291 63.334 44.6281 63.267C44.6771 63.14 44.7391 63.071 44.8151 63.059C44.8911 63.047 44.9291 63.041 44.9291 63.041C44.9291 63.041 44.9481 63.042 44.9851 63.046C45.0241 63.03 45.0461 62.995 45.0501 62.939C45.1501 62.873 45.2581 62.817 45.3741 62.771C45.4921 62.706 45.5731 62.638 45.6171 62.567C45.9451 62.464 46.2341 62.471 46.4871 62.587C46.7401 62.684 46.9431 62.936 47.0951 63.343C47.2061 63.577 47.2631 63.779 47.2671 63.948C47.2711 64.117 47.2581 64.369 47.2291 64.704C47.1671 64.979 47.1111 65.199 47.0591 65.363C47.0271 65.51 46.9951 65.667 46.9621 65.833C46.9281 65.998 46.8801 66.228 46.8171 66.523C46.7291 66.665 46.6691 66.819 46.6361 66.985C46.6211 67.152 46.6071 67.31 46.5941 67.459C46.5731 67.7 46.5681 67.869 46.5781 67.963C46.5901 68.039 46.6621 68.083 46.7921 68.094C47.0571 68.061 47.4221 67.962 47.8861 67.797C48.3701 67.614 48.7331 67.43 48.9741 67.245C49.2761 67.009 49.5291 66.9 49.7331 66.918C49.9581 66.919 50.0891 67.034 50.1251 67.262C50.1561 67.339 50.0761 67.501 49.8861 67.747C49.7141 67.994 49.5161 68.23 49.2901 68.453C49.0831 68.679 48.9331 68.788 48.8401 68.779C48.7841 68.775 48.7141 68.825 48.6301 68.93C48.5471 69.016 48.4571 69.083 48.3591 69.131C48.2181 69.25 48.0771 69.359 47.9371 69.459C47.8161 69.561 47.6811 69.606 47.5321 69.593C47.4581 69.586 47.3621 69.606 47.2461 69.652C47.1501 69.681 47.0361 69.69 46.9061 69.678C46.7151 69.718 46.4301 69.665 46.0491 69.519C45.6871 69.375 45.4681 69.093 45.3921 68.675C45.3351 68.463 45.2991 68.132 45.2821 67.681C45.2671 67.211 45.3171 66.747 45.4321 66.289C45.5361 65.961 45.6091 65.658 45.6521 65.381C45.6951 65.103 45.7491 64.911 45.8151 64.805C45.8201 64.749 45.8311 64.619 45.8491 64.414C45.8681 64.191 45.8501 64.077 45.7951 64.072C45.7201 64.066 45.5311 64.19 45.2281 64.444C44.9451 64.682 44.5991 64.989 44.1921 65.365C43.8031 65.744 43.4121 66.14 43.0201 66.556C42.6271 66.971 42.3041 67.346 42.0501 67.679C41.8651 67.869 41.6941 68.107 41.5381 68.394C41.3811 68.68 41.2741 68.839 41.2151 68.871C41.0721 69.009 40.9121 69.013 40.7361 68.886C40.5781 68.759 40.4361 68.569 40.3081 68.314C40.2621 68.198 40.2331 68.101 40.2211 68.025C40.2101 67.931 40.2211 67.81 40.2521 67.663C40.3041 67.499 40.3911 67.263 40.5111 66.955C40.6501 66.648 40.8381 66.215 41.0751 65.655C41.3341 65.04 41.5611 64.489 41.7531 64C41.9661 63.494 42.0731 63.241 42.0731 63.241C42.0791 63.166 41.9331 63.228 41.6351 63.427C41.3381 63.607 40.9901 63.839 40.5901 64.123C40.4051 64.313 40.0991 64.595 39.6731 64.97C39.2471 65.345 38.7781 65.772 38.2681 66.252C37.7571 66.732 37.2631 67.242 36.7851 67.781C36.1791 68.496 35.7571 68.928 35.5191 69.076C35.3001 69.225 35.1001 69.161 34.9181 68.882ZM54.1471 70.537C53.7501 70.577 53.4971 70.583 53.3871 70.554C53.2971 70.509 53.1581 70.385 52.9701 70.181C52.6851 70.006 52.4511 69.798 52.2661 69.557C52.0991 69.318 51.9801 69.073 51.9081 68.823C51.8571 68.556 51.8471 68.34 51.8811 68.174C51.9931 67.528 52.2121 66.845 52.5381 66.124C52.8631 65.403 53.2421 64.714 53.6741 64.059C54.1061 63.403 54.5571 62.853 55.0271 62.406C55.5181 61.943 55.9741 61.655 56.3961 61.542C56.7811 61.426 57.1391 61.401 57.4701 61.468C57.8021 61.534 58.0281 61.732 58.1491 62.061C58.3811 62.625 58.2861 62.963 57.8641 63.076C57.8081 63.071 57.7401 63.094 57.6611 63.143C57.5841 63.173 57.5411 63.226 57.5351 63.3C57.6061 63.344 57.8101 63.371 58.1461 63.382C58.4841 63.374 58.8241 63.348 59.1651 63.302C59.5261 63.24 59.7671 63.168 59.8871 63.085C60.0031 63.039 60.0891 63.018 60.1451 63.023C60.2011 63.028 60.3391 63.059 60.5591 63.115C60.8671 63.236 61.0151 63.361 61.0041 63.491C60.9971 63.566 61.0181 63.643 61.0681 63.722C61.1191 63.783 61.1811 63.816 61.2561 63.823C61.3841 63.853 61.3581 63.935 61.1781 64.069C61.0161 64.205 60.7381 64.386 60.3431 64.614C59.9701 64.806 59.7341 64.936 59.6351 65.002C59.5551 65.051 59.5351 65.181 59.5731 65.39C59.6901 65.756 59.6641 66.166 59.4931 66.62C59.3221 67.073 59.0481 67.527 58.6711 67.981C58.2941 68.435 57.8451 68.855 57.3241 69.241C56.8241 69.609 56.2911 69.918 55.7251 70.169C55.1801 70.402 54.6541 70.525 54.1471 70.537ZM53.7811 69.268C53.8551 69.274 53.9881 69.249 54.1811 69.19C54.3751 69.114 54.5301 69.052 54.6471 69.006C54.7281 68.939 54.8281 68.863 54.9481 68.78C55.0881 68.68 55.1951 68.623 55.2711 68.611C55.3461 68.618 55.4411 68.598 55.5581 68.552C55.6761 68.487 55.8461 68.362 56.0691 68.175C56.2931 67.97 56.5911 67.668 56.9631 67.27C57.3711 66.893 57.6911 66.546 57.9251 66.23C58.1611 65.894 58.2451 65.574 58.1781 65.268C58.1661 65.192 58.1141 65.141 58.0231 65.114C57.9501 65.089 57.8521 65.033 57.7281 64.948C57.5421 64.931 57.3701 64.869 57.2101 64.762C57.0711 64.637 56.9071 64.482 56.7171 64.297L56.3201 63.7L55.8041 64.133C55.4801 64.404 55.1251 64.823 54.7381 65.389C54.3721 65.937 54.0501 66.509 53.7731 67.103C53.4981 67.679 53.3261 68.141 53.2581 68.491C53.2151 68.769 53.2461 68.959 53.3491 69.061C53.4521 69.164 53.5961 69.233 53.7811 69.268ZM64.0801 67.696C63.5511 67.743 63.2291 67.462 63.1141 66.852C62.9981 66.242 63.1171 65.428 63.4681 64.41C63.5991 64.196 63.7111 63.991 63.8031 63.793C63.8971 63.576 63.9501 63.403 63.9611 63.272C64.0571 63.037 64.1741 62.766 64.3131 62.46C64.4731 62.137 64.6301 61.841 64.7841 61.574C64.9401 61.287 65.0501 61.1 65.1141 61.012C65.1891 61.019 65.2691 60.96 65.3551 60.837C65.4591 60.715 65.5171 60.588 65.5281 60.458C65.5411 60.309 65.5841 60.145 65.6561 59.963C65.7461 59.784 65.8321 59.66 65.9131 59.592C65.9211 59.5 65.9671 59.4 66.0521 59.295C66.1361 59.19 66.1811 59.101 66.1881 59.026C66.1941 58.952 66.2181 58.888 66.2601 58.836C66.3211 58.785 66.3551 58.722 66.3611 58.648C66.5551 58.365 66.8071 57.947 67.1171 57.393C67.4481 56.822 67.7731 56.223 68.0901 55.595C68.4261 54.969 68.7091 54.412 68.9381 53.927C69.1681 53.441 69.2881 53.142 69.2981 53.031C69.3481 52.885 69.4141 52.778 69.4951 52.71C69.5751 52.643 69.6891 52.634 69.8341 52.684C69.9131 52.635 69.9901 52.613 70.0651 52.62C70.1411 52.608 70.2161 52.605 70.2901 52.611C70.2901 52.611 70.3151 52.651 70.3641 52.73C70.4321 52.811 70.5251 52.932 70.6421 53.092C70.7791 53.235 70.8501 53.391 70.8541 53.56C70.8581 53.729 70.8501 53.925 70.8301 54.148C70.7811 54.5 70.6161 54.888 70.3351 55.314C70.0541 55.739 69.7411 56.208 69.3971 56.721C69.1801 57.058 68.9651 57.377 68.7511 57.677C68.5561 57.978 68.4551 58.166 68.4491 58.24C68.4421 58.315 68.3951 58.423 68.3081 58.565C68.2201 58.708 68.1201 58.886 68.0081 59.101C67.8801 59.277 67.7401 59.49 67.5871 59.739C67.4341 59.988 67.2921 60.219 67.1611 60.432C67.0501 60.629 66.9921 60.755 66.9871 60.811C66.9621 60.883 66.9281 60.955 66.8841 61.027C66.8591 61.099 66.8061 61.17 66.7251 61.238C66.6501 61.231 66.5991 61.283 66.5711 61.393C66.5631 61.486 66.5591 61.532 66.5591 61.532C66.5521 61.607 66.4901 61.779 66.3731 62.05C66.2761 62.304 66.1181 62.608 65.8991 62.964C65.4601 63.919 65.1391 64.687 64.9391 65.269C64.7391 65.833 64.6031 66.317 64.5301 66.723C64.4541 67.166 64.3941 67.423 64.3501 67.494C64.3251 67.567 64.2351 67.634 64.0801 67.696ZM62.1831 72.027C61.8191 72.126 61.5151 72.165 61.2741 72.144C61.0521 72.106 60.8111 71.972 60.5501 71.743C60.2261 71.378 60.1341 71.032 60.2751 70.707C60.4361 70.365 60.7731 70.048 61.2861 69.756C61.6381 69.581 61.8901 69.49 62.0401 69.485C62.2091 69.481 62.4551 69.568 62.7761 69.746C63.3031 70.148 63.5111 70.56 63.3991 70.981C63.3061 71.404 62.9011 71.752 62.1831 72.027Z" fill="#444CE7"/>
</svg>
