<svg width="108" height="107" viewBox="0 0 108 107" fill="none" xmlns="http://www.w3.org/2000/svg">
<path d="M103.098 75.192C90.314 81.063 77.244 86.289 63.936 90.849C50.619 95.412 37.0827 99.304 23.3766 102.512C20.4227 103.204 17.4376 104.016 14.4179 104.36C12.0235 104.637 9.4125 104.657 7.2213 103.536C2.1392 100.922 2.15141 93.999 2.34361 89.074C2.74781 78.699 6.2848 68.546 12.1037 59.972C15.016 55.677 18.5116 51.808 22.49 48.475C24.4475 46.839 26.5238 45.35 28.7019 44.021C30.6511 42.829 32.8415 41.569 35.2081 41.656C36.1742 41.692 36.9999 42.052 37.6315 42.791L37.8103 41.376C34.5503 43.722 30.2906 41.836 27.7024 39.354C24.9984 36.764 23.4848 33.03 22.9244 29.376C21.751 21.724 24.8911 13.895 30.784 8.95998C37.0211 3.73598 45.8875 1.69599 53.838 3.15499C61.204 4.50599 68.756 9.03798 71.338 16.413C72.568 19.927 72.269 23.857 70.737 27.235C69.261 30.488 66.648 33.417 63.16 34.514C62.312 34.783 61.431 34.939 60.542 34.977L61.315 36.327C63.047 32.218 67.836 30.604 72.002 31.103C77.071 31.707 81.642 34.823 85.775 37.6C94.217 43.278 102.091 50.325 107.245 59.199C108.684 61.656 109.875 64.25 110.799 66.943C111.196 68.116 111.707 69.368 111.667 70.625C111.668 71.11 111.563 71.589 111.359 72.029C111.194 72.342 111.039 72.504 110.753 72.447C109.621 72.217 109.141 73.953 110.278 74.183C112.989 74.731 113.697 71.468 113.386 69.44C113.191 68.169 112.696 66.892 112.258 65.693C111.787 64.401 111.261 63.128 110.679 61.883C108.341 56.88 105.064 52.348 101.311 48.305C97.484 44.183 93.134 40.567 88.542 37.329C86.263 35.722 83.922 34.18 81.503 32.79C79.084 31.399 76.529 30.185 73.802 29.596C71.033 28.998 68.141 29.078 65.501 30.143C63.016 31.143 60.821 32.911 59.763 35.426C59.521 36 59.787 36.808 60.536 36.775C69.056 36.404 74.684 27.303 73.823 19.33C72.891 10.706 65.238 4.543 57.393 2.165C48.945 -0.395003 39.1996 0.984973 31.8604 5.91597C28.289 8.31397 25.284 11.555 23.3958 15.436C21.5733 19.165 20.725 23.295 20.9299 27.441C21.1516 31.513 22.4243 35.586 24.8876 38.868C27.3733 42.178 31.6898 44.916 35.9829 44.112C36.9728 43.922 37.9087 43.516 38.7244 42.924C39.2226 42.567 39.3061 41.979 38.9032 41.51C37.2132 39.537 34.4234 39.604 32.1455 40.339C29.6741 41.125 27.4323 42.62 25.3159 44.083C20.8799 47.158 16.9091 50.854 13.5254 55.059C6.726 63.488 2.27641 73.727 0.920606 84.477C0.575206 87.196 0.443707 89.937 0.527307 92.676C0.619207 95.611 1.01721 98.677 2.46081 101.283C3.12741 102.482 4.04381 103.523 5.14791 104.337C6.25201 105.151 7.51811 105.718 8.86051 106C11.5213 106.574 14.2764 106.276 16.9271 105.783C20.2595 105.163 23.5644 104.33 26.8583 103.534C30.3857 102.681 33.9012 101.78 37.4048 100.832C44.4142 98.944 51.371 96.876 58.276 94.628C72.161 90.107 85.803 84.871 99.148 78.941C100.776 78.218 102.397 77.486 104.008 76.745C104.451 76.542 104.557 75.902 104.329 75.513C104.062 75.059 103.54 74.988 103.097 75.192H103.098Z" fill="#444CE7"/>
</svg>
