<svg fill="none" viewBox="0 0 28 28"><path stroke="currentColor" stroke-linecap="round" stroke-linejoin="round" stroke-width="2" d="M17.5 24.5v-6.3c0-.653 0-.98-.127-1.23a1.166 1.166 0 0 0-.51-.51c-.25-.127-.576-.127-1.23-.127h-3.266c-.654 0-.98 0-1.23.128-.22.111-.398.29-.51.51-.127.249-.127.576-.127 1.229v6.3m-7-16.333a3.5 3.5 0 1 0 7 0 3.5 3.5 0 1 0 7 0 3.5 3.5 0 1 0 7 0M7.233 24.5h13.534c1.306 0 1.96 0 2.459-.254.439-.224.796-.581 1.02-1.02.254-.5.254-1.152.254-2.46V7.234c0-1.306 0-1.96-.254-2.459a2.334 2.334 0 0 0-1.02-1.02c-.5-.254-1.152-.254-2.46-.254H7.234c-1.306 0-1.96 0-2.459.254-.439.224-.796.581-1.02 1.02-.254.5-.254 1.153-.254 2.46v13.533c0 1.306 0 1.96.254 2.459.224.439.581.796 1.02 1.02.5.254 1.153.254 2.46.254Z"/></svg>