<svg fill="none" viewBox="0 0 28 28"><path stroke="currentColor" stroke-linecap="round" stroke-linejoin="round" stroke-width="2" d="M16.392 7A5.834 5.834 0 0 1 21 11.608m-4.608-9.275a10.5 10.5 0 0 1 9.275 9.264m-13.735 4.577a17.036 17.036 0 0 1-3.321-4.678c-.07-.146-.105-.219-.132-.31a1.22 1.22 0 0 1 .172-1.006c.056-.078.122-.145.256-.278.408-.408.612-.612.745-.817a2.333 2.333 0 0 0 0-2.544c-.133-.205-.337-.41-.745-.817l-.228-.227c-.62-.62-.93-.93-1.263-1.099a2.333 2.333 0 0 0-2.106 0c-.333.169-.643.479-1.263 1.099l-.184.184c-.618.617-.927.926-1.163 1.346a3.94 3.94 0 0 0-.448 1.725c.001.482.095.811.282 1.47a22.211 22.211 0 0 0 5.685 9.664 22.212 22.212 0 0 0 9.665 5.686c.658.187.988.28 1.47.281a3.94 3.94 0 0 0 1.724-.448c.42-.236.729-.545 1.347-1.163l.184-.184c.62-.62.93-.93 1.098-1.263a2.333 2.333 0 0 0 0-2.106c-.168-.333-.478-.643-1.098-1.263l-.228-.227c-.407-.408-.611-.612-.817-.746a2.334 2.334 0 0 0-2.543 0c-.205.134-.41.338-.817.746-.134.133-.2.2-.278.255a1.22 1.22 0 0 1-1.006.172 1.99 1.99 0 0 1-.31-.132 17.036 17.036 0 0 1-4.678-3.32Z"/></svg>