<svg width="28" height="28" viewBox="0 0 28 28" fill="none" xmlns="http://www.w3.org/2000/svg">
<g clip-path="url(#clip0_377_5247)">
<path fill-rule="evenodd" clip-rule="evenodd" d="M3.92867 27.3135C4.53033 27.5481 5.4349 27.8252 7.10007 27.901C8.90005 27.9842 9.44096 28 13.9996 28C18.5599 28 19.1008 27.9834 20.9008 27.901C22.5659 27.8252 23.4705 27.5481 24.0722 27.3135C24.8694 27.0031 25.4386 26.6336 26.0361 26.0361C26.6336 25.4386 27.0031 24.8702 27.3135 24.073C27.5465 23.4713 27.8252 22.5668 27.901 20.9016C27.9834 19.0999 28 18.559 28 14.0004C28 9.44013 27.9834 8.90088 27.901 7.09924C27.8252 5.43407 27.5481 4.5295 27.3135 3.92784C27.0031 3.13062 26.6344 2.56142 26.0361 1.96392C25.4378 1.36642 24.8694 0.995274 24.0722 0.68654C23.4688 0.453532 22.5659 0.174756 20.9008 0.0990281C19.0991 0.0183077 18.5599 0 13.9996 0C9.44096 0 8.90005 0.0166434 7.09924 0.0990281C5.43407 0.174756 4.5295 0.451868 3.92784 0.68654C3.12979 0.995274 2.56142 1.36642 1.96392 1.96392C1.36725 2.56308 0.996939 3.13145 0.68654 3.92867C0.453532 4.53199 0.174756 5.4349 0.0990281 7.10007C0.0183077 8.90172 0 9.44096 0 14.0012C0 18.5615 0.0166434 19.1016 0.0998603 20.9016C0.175588 22.5668 0.4527 23.4713 0.687372 24.073C0.996107 24.8702 1.36642 25.4386 1.96475 26.0361C2.56308 26.6336 3.13145 27.0031 3.92867 27.3135ZM14.0297 10.5917C12.1148 10.5917 10.5629 12.1444 10.5629 14.0593C10.5629 15.9742 12.1148 17.527 14.0297 17.527C15.9446 17.527 17.4974 15.9742 17.4974 14.0593C17.4974 12.1444 15.9446 10.5917 14.0297 10.5917ZM14.0297 19.4007C11.0797 19.4007 8.68836 17.0094 8.68836 14.0593H8.68844C8.68844 11.1091 11.0797 8.71798 14.0297 8.71798C16.9798 8.71798 19.3711 11.1093 19.3711 14.0593C19.3711 17.0094 16.9798 19.4007 14.0297 19.4007ZM18.5445 9.19977C18.4074 8.99444 18.3343 8.75308 18.3344 8.50619C18.3347 8.17527 18.4663 7.85799 18.7003 7.62404C18.9344 7.39009 19.2517 7.25859 19.5826 7.25844H19.5831C19.83 7.25854 20.0713 7.33184 20.2765 7.46909C20.4817 7.60633 20.6417 7.80134 20.736 8.02947C20.8304 8.2576 20.8551 8.50859 20.8068 8.7507C20.7585 8.99282 20.6396 9.21519 20.4649 9.38969C20.2903 9.5642 20.0678 9.68299 19.8257 9.73106C19.5835 9.77913 19.3325 9.75431 19.1045 9.65974C18.8764 9.56517 18.6815 9.4051 18.5445 9.19977ZM7.89555 22.1687C8.26187 22.3114 8.8131 22.4803 9.82727 22.5265V22.5267C10.9234 22.5771 11.2519 22.5872 14.0297 22.5872C16.8076 22.5872 17.137 22.5771 18.2334 22.5267C19.2476 22.4806 19.799 22.3116 20.1651 22.1688C20.6508 21.9798 20.9978 21.7542 21.3616 21.3908C21.7255 21.0273 21.9506 20.6807 22.1397 20.1951C22.2816 19.8288 22.4514 19.2775 22.4975 18.2634C22.548 17.166 22.558 16.8375 22.558 14.0597C22.558 11.2818 22.548 10.9534 22.4975 9.85597C22.4514 8.84181 22.2825 8.29041 22.1397 7.92426C21.9506 7.4386 21.726 7.09159 21.3616 6.72776C20.9973 6.36394 20.6508 6.13792 20.1651 5.94969C19.7979 5.80822 19.2476 5.63804 18.2334 5.59185C17.136 5.54192 16.8063 5.53119 14.0297 5.53119C11.2531 5.53119 10.9237 5.54126 9.82727 5.59169C8.8131 5.63779 8.26171 5.80672 7.89555 5.94952C7.40906 6.13776 7.06288 6.36327 6.69906 6.7276C6.33523 7.09192 6.11005 7.43844 5.92098 7.92409C5.77951 8.29133 5.60933 8.84164 5.56315 9.85581C5.51355 10.9532 5.50265 11.2816 5.50265 14.0595C5.50265 16.8374 5.51272 17.1667 5.56315 18.2632C5.60925 19.2774 5.77818 19.8288 5.92098 20.1949C6.10922 20.6806 6.33473 21.0268 6.69906 21.3906C7.06338 21.7544 7.4099 21.9796 7.89555 22.1687ZM7.21625 4.20338C7.87708 3.94624 8.63377 3.77065 9.74114 3.72022H9.74155C10.8513 3.66896 11.2065 3.65723 14.031 3.65723C16.8554 3.65723 17.2099 3.66954 18.3191 3.72022C19.4257 3.76982 20.1819 3.94624 20.844 4.20338C21.5271 4.46892 22.1078 4.82426 22.6859 5.4032C23.2639 5.98214 23.6194 6.56191 23.8857 7.24587C24.1428 7.9067 24.3184 8.66331 24.3688 9.77076C24.4193 10.8799 24.431 11.2345 24.431 14.0593C24.431 16.8842 24.4193 17.238 24.3688 18.3479C24.3192 19.4553 24.1428 20.2116 23.8857 20.8728C23.6194 21.5568 23.2648 22.1375 22.6859 22.7155C22.1069 23.2935 21.5272 23.649 20.8432 23.9153C20.1819 24.1724 19.4258 24.348 18.3183 24.3985C17.2092 24.4497 16.8546 24.4615 14.0297 24.4615C11.2048 24.4615 10.8508 24.4489 9.74114 24.3985C8.63377 24.348 7.87833 24.1724 7.21625 23.9153C6.53146 23.649 5.95244 23.2933 5.37358 22.7155C4.79472 22.1377 4.4393 21.5568 4.17376 20.8728C3.91662 20.2116 3.74103 19.4554 3.6906 18.3479C3.63934 17.2388 3.6276 16.8842 3.6276 14.0593C3.6276 11.2345 3.63934 10.8799 3.6906 9.77076C3.74103 8.66339 3.91662 7.90711 4.17376 7.24587C4.4393 6.56108 4.79464 5.98123 5.37358 5.4032C5.95252 4.82518 6.53229 4.46892 7.21625 4.20338Z" fill="#444CE7"/>
</g>
<defs>
<clipPath id="clip0_377_5247">
<rect width="28" height="28" fill="white"/>
</clipPath>
</defs>
</svg>
