<svg xmlns="http://www.w3.org/2000/svg" fill="none" viewBox="0 0 24 24">
  <path fill="currentColor" fill-rule="evenodd" d="M22.978 4.93a1.676 1.676 0 0 0-.604-1.574 1.632 1.632 0 0 0-1.654-.226L2.004 11.098c-1.305.555-1.372 2.463 0 3.038a61.396 61.396 0 0 0 4.13 1.57c1.279.427 2.673.822 3.79.934a8.3 8.3 0 0 0 1.082 1.05c.599.499 1.32 1.011 2.063 1.502 1.491.985 3.145 1.927 4.26 2.54 1.331.73 2.926-.11 3.165-1.579L22.978 4.93ZM4.102 12.605l16.554-7.046-2.319 14.209c-1.093-.6-2.668-1.5-4.071-2.428a21.884 21.884 0 0 1-1.87-1.36 8.667 8.667 0 0 1-.467-.414l4.335-4.382a1.113 1.113 0 0 0 0-1.565 1.089 1.089 0 0 0-1.547 0L9.97 14.417c-.804-.104-1.922-.405-3.15-.815-.915-.308-1.82-.64-2.717-.998h-.001Z" clip-rule="evenodd"/>
</svg>
