<svg fill="none" viewBox="0 0 28 28"><path stroke="#444CE7" stroke-linecap="round" stroke-linejoin="round" stroke-width="2.5" d="M18.137 11.58c.436-.775.8-1.475 1.024-2.007 1.09-2.585.012-5.559-2.621-6.772-2.633-1.212-5.277.045-6.438 2.474-2.22-1.523-5.18-1.3-6.812 1.077-1.632 2.376-1.12 5.48 1.116 7.175 1.015.768 3.022 1.901 4.911 2.91m9.697-2.729c-.493-2.646-2.744-4.58-5.579-4.055-2.835.526-4.667 3.084-4.284 5.863.308 2.232 2.007 7.47 2.663 9.444.09.27.135.404.223.498a.59.59 0 0 0 .29.167c.125.03.264 0 .542-.056 2.037-.418 7.423-1.566 9.51-2.415 2.6-1.058 3.94-3.922 2.936-6.642-1.005-2.72-3.764-3.7-6.302-2.804Z"/></svg>