<svg fill="none" viewBox="0 0 28 28"><path stroke="#444CE7" stroke-linecap="round" stroke-linejoin="round" stroke-width="2.5" d="m2.333 14 11.25 5.625c.153.076.23.115.31.13a.58.58 0 0 0 .214 0c.08-.015.157-.054.31-.13L25.667 14M2.333 19.834l11.25 5.624c.153.077.23.115.31.13a.585.585 0 0 0 .214 0c.08-.015.157-.053.31-.13l11.25-5.624M2.333 8.167l11.25-5.625c.153-.076.23-.115.31-.13a.583.583 0 0 1 .214 0c.08.015.157.054.31.13l11.25 5.625-11.25 5.624c-.153.077-.23.115-.31.13a.585.585 0 0 1-.215 0c-.08-.015-.156-.053-.31-.13L2.333 8.168Z"/></svg>