<svg width="32" height="32" viewBox="0 0 32 32" fill="none" xmlns="http://www.w3.org/2000/svg">
<g clip-path="url(#clip0_6169_78810)">
<path fill-rule="evenodd" clip-rule="evenodd" d="M14.9961 31.9992C12.4764 31.9992 10.3307 31.6322 8.55906 30.8982C6.7874 30.2009 5.35039 29.1917 4.24803 27.8705C3.1063 26.5493 2.27953 24.9528 1.76772 23.0811C1.25591 21.2094 1 19.0991 1 16.7503L1 14.7685L30.9883 14.7685C30.9961 15.0589 31 15.3525 31 15.6493C31 18.4385 30.626 20.8607 29.878 22.9159C29.0906 24.9711 28.0079 26.6594 26.6299 27.9806C25.2126 29.3385 23.5197 30.3477 21.5512 31.0083C19.5827 31.6689 17.3976 31.9992 14.9961 31.9992ZM7.8504 18.8973L23.6181 18.8973C23.6181 21.0259 22.8701 22.7875 21.374 24.1821C19.8386 25.5767 17.811 26.274 15.2913 26.274C12.9291 26.274 11.0984 25.6868 9.79921 24.5124C8.5 23.338 7.85039 21.4663 7.8504 18.8973Z" fill="#444CE7"/>
<path fill-rule="evenodd" clip-rule="evenodd" d="M18.421 12.3077H12.4615L15.2511 0H24L18.421 12.3077Z" fill="#444CE7"/>
</g>
<defs>
<clipPath id="clip0_6169_78810">
<rect width="32" height="32" fill="white"/>
</clipPath>
</defs>
</svg>
