<svg fill="none" viewBox="0 0 20 20"><path stroke="currentColor" stroke-linecap="round" stroke-linejoin="round" stroke-width="2" d="M12.5 17.5V13c0-.467 0-.7-.09-.878a.833.833 0 0 0-.365-.364c-.178-.091-.412-.091-.878-.091H8.833c-.466 0-.7 0-.878.09a.833.833 0 0 0-.364.365C7.5 12.3 7.5 12.533 7.5 13v4.5m-5-11.667a2.5 2.5 0 1 0 5 0 2.5 2.5 0 1 0 5 0 2.5 2.5 0 0 0 5 0M5.167 17.5h9.666c.934 0 1.4 0 1.757-.182.314-.16.569-.414.728-.728.182-.357.182-.823.182-1.757V5.167c0-.934 0-1.4-.182-1.757a1.666 1.666 0 0 0-.728-.728c-.357-.182-.823-.182-1.757-.182H5.167c-.934 0-1.4 0-1.757.182-.314.16-.569.414-.728.728-.182.357-.182.823-.182 1.757v9.666c0 .934 0 1.4.182 1.757.16.314.414.569.728.728.357.182.823.182 1.757.182Z"/></svg>