<svg fill="none" viewBox="0 0 20 20">
    <g clipPath="url(#a)">
    <path
        stroke="currentColor"
        strokeLinecap="round"
        strokeLinejoin="round"
        strokeWidth="2"
        d="m7.5 10 1.666 1.667 3.75-3.75M6.111 3.182A3.193 3.193 0 0 0 7.93 2.43a3.193 3.193 0 0 1 4.142 0 3.198 3.198 0 0 0 1.817.752 3.193 3.193 0 0 1 2.93 2.93c.053.67.316 1.305.752 1.817a3.193 3.193 0 0 1 0 4.142 3.193 3.193 0 0 0-.752 1.818 3.193 3.193 0 0 1-2.93 2.929 3.193 3.193 0 0 0-1.817.752 3.193 3.193 0 0 1-4.142 0 3.193 3.193 0 0 0-1.818-.752 3.193 3.193 0 0 1-2.929-2.93 3.193 3.193 0 0 0-.753-1.817 3.193 3.193 0 0 1 0-4.142c.436-.512.7-1.148.753-1.818a3.193 3.193 0 0 1 2.93-2.929Z"
    />
    </g>
    <defs>
    <clipPath id="a">
        <path fill="currentColor" d="M0 0h20v20H0z" />
    </clipPath>
    </defs>
</svg>