<svg fill="none" viewBox="0 0 20 20">
    <path
    fill="currentColor"
    fillRule="evenodd"
    d="M13.577 1.91a.833.833 0 0 1 1.179 0l3.333 3.334a.833.833 0 0 1 0 1.179l-3.333 3.333a.833.833 0 0 1-1.179-1.179l2.744-2.744-2.744-2.744a.833.833 0 0 1 0-1.178Z"
    clipRule="evenodd"
    />
    <path
    fill="currentColor"
    fillRule="evenodd"
    d="M6.667 5.833c0-.46.373-.833.833-.833h10a.833.833 0 0 1 0 1.667h-10a.833.833 0 0 1-.833-.834Zm-.244 4.411a.833.833 0 0 1 0 1.179l-2.744 2.744 2.744 2.744a.833.833 0 0 1-1.179 1.178l-3.333-3.333a.833.833 0 0 1 0-1.179l3.333-3.333a.833.833 0 0 1 1.179 0Z"
    clipRule="evenodd"
    />
    <path
    fill="currentColor"
    fillRule="evenodd"
    d="M1.667 14.167c0-.46.373-.834.833-.834h10a.833.833 0 0 1 0 1.667h-10a.833.833 0 0 1-.833-.833Z"
    clipRule="evenodd"
    />
</svg>