<svg fill="none" viewBox="0 0 60 60"><path fill="currentColor" fill-rule="evenodd" d="M20.746 7.944C24.202 3.181 30.339.9 36.488 3.732c6.9 3.177 9.72 11.001 6.874 17.751-.399.947-.962 2.073-1.614 3.278.276.515.52 1.05.732 1.602 5.812-.924 11.765 1.802 14.11 8.153 2.631 7.125-.906 14.652-7.691 17.413-2.44.993-6.625 2.102-10.592 3.05a340.695 340.695 0 0 1-10.228 2.26l-.05.01c-.252.052-.565.116-.85.151-.34.042-.81.068-1.343-.059a3.763 3.763 0 0 1-1.86-1.074 3.744 3.744 0 0 1-.723-1.134 11.245 11.245 0 0 1-.293-.81l-.016-.05a340.914 340.914 0 0 1-3.158-9.987c-.75-2.52-1.486-5.152-2.011-7.403-3.736-2.015-7.681-4.267-9.844-5.906C2.063 26.532.743 18.375 4.989 12.194c3.841-5.59 10.376-6.644 15.757-4.25ZM22.42 34.75a25.875 25.875 0 0 1-.335-1.844c-.637-4.617 2.385-8.876 7.16-9.762 3.084-.572 5.8.65 7.471 2.95.06.1.126.197.2.288.656.988 1.128 2.155 1.369 3.45a2.5 2.5 0 0 0 3.29 1.9c4.344-1.534 8.715.156 10.325 4.517 1.673 4.53-.536 9.28-4.886 11.05-2.034.828-5.856 1.859-9.87 2.819a332.879 332.879 0 0 1-9.605 2.128c-.72-2.172-1.881-5.75-2.96-9.383-.892-3-1.693-5.926-2.159-8.113Zm15.86-14.167c-2.616-2.06-6.06-3.076-9.947-2.355-6.408 1.189-10.898 6.406-11.303 12.538-2.538-1.43-4.77-2.781-6.08-3.773-3.715-2.815-4.59-7.963-1.84-11.966 2.583-3.76 7.3-4.285 11.122-1.663a2.5 2.5 0 0 0 3.67-.983c1.986-4.156 6.272-6.052 10.494-4.107 4.387 2.02 6.183 6.94 4.359 11.269-.131.31-.29.659-.476 1.04Z" clip-rule="evenodd"/></svg>