<svg fill="none" viewBox="0 0 24 24"><path fill="currentColor" d="m7 11 4.08 10.35a1 1 0 0 0 1.84 0L17 11"/><path stroke="currentColor" stroke-linecap="round" stroke-linejoin="round" stroke-width="2" d="m7 11 4.08 10.35a1 1 0 0 0 1.84 0L17 11"/><path fill="currentColor" d="M17 7A5 5 0 0 0 7 7"/><path stroke="currentColor" stroke-linecap="round" stroke-linejoin="round" stroke-width="2" d="M17 7A5 5 0 0 0 7 7"/><path fill="currentColor" d="M17 7a2 2 0 0 1 0 4H7a2 2 0 1 1 0-4"/><path stroke="currentColor" stroke-linecap="round" stroke-linejoin="round" stroke-width="2" d="M17 7a2 2 0 0 1 0 4H7a2 2 0 1 1 0-4"/></svg>