<svg fill="none" viewBox="0 0 32 32"><path fill="currentColor" fill-rule="evenodd" d="M6.666 5.333c-.736 0-1.333.597-1.333 1.333v18.667c0 .737.597 1.334 1.333 1.334h18.667c.736 0 1.333-.598 1.333-1.334V6.667c0-.737-.597-1.334-1.333-1.334H6.666Zm-4 1.333a4 4 0 0 1 4-4h18.667a4 4 0 0 1 4 4v18.667a4 4 0 0 1-4 4H6.666a4 4 0 0 1-4-4V6.667Z" clip-rule="evenodd"/><path fill="currentColor" fill-rule="evenodd" d="M12 10.667a1.333 1.333 0 1 0 0 2.666 1.333 1.333 0 0 0 0-2.666ZM8 12a4 4 0 1 1 8 0 4 4 0 0 1-8 0ZM19.171 14.942a4 4 0 0 1 5.656 0l4.115 4.115a1.333 1.333 0 1 1-1.886 1.886l-4.114-4.115a1.334 1.334 0 0 0-1.885 0L8.942 28.943a1.333 1.333 0 0 1-1.885-1.886L19.17 14.942Z" clip-rule="evenodd"/></svg>