<svg width="67" height="16" viewBox="0 0 67 16" fill="none" xmlns="http://www.w3.org/2000/svg">
<path fill-rule="evenodd" clip-rule="evenodd" d="M6.2477 14.6663C5.19785 14.6663 4.30381 14.5134 3.56562 14.2075C2.82744 13.917 2.22868 13.4965 1.76936 12.946C1.29364 12.3955 0.94915 11.7303 0.7359 10.9504C0.522645 10.1705 0.416016 9.29122 0.416016 8.31257V7.48682H12.9111C12.9144 7.60782 12.916 7.73012 12.916 7.85382C12.916 9.01597 12.7602 10.0252 12.4485 10.8816C12.1204 11.7379 11.6693 12.4413 11.0951 12.9918C10.5046 13.5576 9.7992 13.9782 8.979 14.2534C8.1588 14.5287 7.24835 14.6663 6.2477 14.6663ZM3.27035 9.20712H9.84025C9.84025 10.0941 9.52855 10.8281 8.9052 11.4091C8.2654 11.9902 7.4206 12.2808 6.37075 12.2808C5.3865 12.2808 4.62369 12.0361 4.08236 11.5468C3.54102 11.0574 3.27035 10.2776 3.27035 9.20712Z" fill="currentColor"/>
<path fill-rule="evenodd" clip-rule="evenodd" d="M7.67475 6.46145H5.19165L6.35395 1.33325H9.99935L7.67475 6.46145Z" fill="currentColor"/>
<path d="M21.594 4.23987C22.9914 4.23987 23.9994 4.63453 24.618 5.42385C25.2367 6.2132 25.546 7.32255 25.546 8.75185V9.32785H19.386C19.386 9.7332 19.4234 10.1172 19.498 10.4798C19.5727 10.8318 19.69 11.1412 19.85 11.4078C20.0207 11.6638 20.234 11.8718 20.49 12.0318C20.7567 12.1812 21.0767 12.2558 21.45 12.2558C21.962 12.2558 22.3727 12.1385 22.682 11.9038C23.002 11.6692 23.2367 11.3545 23.386 10.9598L25.354 11.4078C25.066 12.3465 24.5647 13.0398 23.85 13.4878C23.146 13.9358 22.33 14.1598 21.402 14.1598C20.0367 14.1598 18.9807 13.7118 18.234 12.8158C17.498 11.9198 17.13 10.6505 17.13 9.00785C17.13 7.43985 17.5194 6.25585 18.298 5.45585C19.0767 4.6452 20.1754 4.23987 21.594 4.23987ZM19.418 8.04785H23.418C23.418 6.77855 22.7834 6.14385 21.514 6.14385C21.194 6.14385 20.906 6.19185 20.65 6.28785C20.394 6.38385 20.1754 6.5172 19.994 6.68785C19.8127 6.85855 19.6687 7.0612 19.562 7.29585C19.466 7.51985 19.418 7.77055 19.418 8.04785Z" fill="currentColor"/>
<path d="M28.8143 4.3839L28.5423 6.27188H28.7983C28.9263 5.96258 29.097 5.67988 29.3103 5.42388C29.5343 5.16788 29.7797 4.94923 30.0463 4.7679C30.3237 4.5759 30.6223 4.4319 30.9423 4.3359C31.273 4.22923 31.6037 4.1759 31.9343 4.1759C32.7557 4.1759 33.385 4.45857 33.8223 5.02388C34.2703 5.57858 34.4943 6.34123 34.4943 7.31188V13.9999H32.2543V8.59188C32.2543 7.74923 32.1423 7.13588 31.9183 6.75188C31.705 6.35723 31.321 6.15988 30.7663 6.15988C30.4783 6.15988 30.2063 6.22388 29.9503 6.35188C29.6943 6.47988 29.4703 6.67723 29.2783 6.94388C29.0863 7.21058 28.9317 7.54123 28.8143 7.93588C28.7077 8.33058 28.6543 8.79458 28.6543 9.32788V13.9999H26.4143V4.3839H28.8143Z" fill="currentColor"/>
<path d="M36.1987 4.39988V1.99988H38.4386V4.39988H40.5987V6.41586C40.46 6.40521 40.2893 6.39456 40.0867 6.38386C39.884 6.37321 39.6813 6.36786 39.4786 6.36786C39.2759 6.35721 39.0786 6.34656 38.8867 6.33586C38.7053 6.32521 38.5559 6.31456 38.4386 6.30386V10.3519C38.4386 10.9812 38.5239 11.4239 38.6946 11.6799C38.8759 11.9359 39.1693 12.0639 39.5746 12.0639C39.7453 12.0639 39.964 12.0372 40.2307 11.9839L40.5027 14.0319C40.2573 14.0852 40.0226 14.1226 39.7986 14.1439C39.5746 14.1759 39.356 14.1919 39.1427 14.1919C38.7053 14.1919 38.3053 14.1332 37.9426 14.0159C37.5799 13.9092 37.2706 13.7386 37.0146 13.5039C36.7586 13.2692 36.556 12.9759 36.4067 12.6239C36.268 12.2612 36.1987 11.8346 36.1987 11.3439V6.30386C36.1347 6.31456 36.044 6.32521 35.9267 6.33586C35.82 6.34656 35.7079 6.35721 35.5906 6.36786C35.4733 6.37856 35.3613 6.38921 35.2547 6.39986C35.1587 6.41056 35.0786 6.42121 35.0146 6.43186V4.39988H36.1987Z" fill="currentColor"/>
<path d="M43.8924 4.39997L43.6204 6.15995H43.8924C44.0097 5.8613 44.1911 5.5893 44.4364 5.34395C44.6817 5.08795 44.9697 4.87464 45.3004 4.70397C45.6311 4.52264 45.9884 4.39464 46.3724 4.31997C46.7671 4.2453 47.1724 4.23464 47.5884 4.28797L47.0124 6.94395C46.6604 6.84795 46.3297 6.79995 46.0204 6.79995C45.3484 6.79995 44.7991 7.0133 44.3724 7.43995C43.9457 7.85595 43.7324 8.4693 43.7324 9.27995V14H41.4924V4.39997H43.8924Z" fill="currentColor"/>
<path d="M51.922 4.23987C53.3195 4.23987 54.3275 4.63453 54.946 5.42385C55.565 6.2132 55.874 7.32255 55.874 8.75185V9.32785H49.7141C49.7141 9.7332 49.7514 10.1172 49.8261 10.4798C49.9008 10.8318 50.018 11.1412 50.178 11.4078C50.349 11.6638 50.562 11.8718 50.818 12.0318C51.085 12.1812 51.405 12.2558 51.778 12.2558C52.29 12.2558 52.701 12.1385 53.01 11.9038C53.33 11.6692 53.565 11.3545 53.714 10.9598L55.682 11.4078C55.394 12.3465 54.893 13.0398 54.178 13.4878C53.474 13.9358 52.658 14.1598 51.73 14.1598C50.365 14.1598 49.3088 13.7118 48.5621 12.8158C47.8261 11.9198 47.4581 10.6505 47.4581 9.00785C47.4581 7.43985 47.8474 6.25585 48.6261 5.45585C49.4048 4.6452 50.5035 4.23987 51.922 4.23987ZM49.7461 8.04785H53.746C53.746 6.77855 53.1115 6.14385 51.842 6.14385C51.522 6.14385 51.234 6.19185 50.978 6.28785C50.722 6.38385 50.5035 6.5172 50.322 6.68785C50.141 6.85855 49.9968 7.0612 49.8901 7.29585C49.7941 7.51985 49.7461 7.77055 49.7461 8.04785Z" fill="currentColor"/>
<path d="M60.9535 4.23987C62.3505 4.23987 63.3585 4.63453 63.9775 5.42385C64.596 6.2132 64.9055 7.32255 64.9055 8.75185V9.32785H58.7455C58.7455 9.7332 58.7825 10.1172 58.8575 10.4798C58.932 10.8318 59.0495 11.1412 59.2095 11.4078C59.38 11.6638 59.5935 11.8718 59.8495 12.0318C60.116 12.1812 60.436 12.2558 60.8095 12.2558C61.3215 12.2558 61.732 12.1385 62.0415 11.9038C62.3615 11.6692 62.596 11.3545 62.7455 10.9598L64.7135 11.4078C64.4255 12.3465 63.924 13.0398 63.2095 13.4878C62.5055 13.9358 61.6895 14.1598 60.7615 14.1598C59.396 14.1598 58.34 13.7118 57.5935 12.8158C56.8575 11.9198 56.4895 10.6505 56.4895 9.00785C56.4895 7.43985 56.8785 6.25585 57.6575 5.45585C58.436 4.6452 59.5345 4.23987 60.9535 4.23987ZM58.7775 8.04785H62.7775C62.7775 6.77855 62.1425 6.14385 60.8735 6.14385C60.5535 6.14385 60.2655 6.19185 60.0095 6.28785C59.7535 6.38385 59.5345 6.5172 59.3535 6.68785C59.172 6.85855 59.028 7.0612 58.9215 7.29585C58.8255 7.51985 58.7775 7.77055 58.7775 8.04785Z" fill="currentColor"/>
</svg>
