<svg fill="none" viewBox="0 0 20 20"><path fill="currentColor" fill-rule="evenodd" d="M3.334 4.167A.833.833 0 0 0 2.501 5v10c0 .46.373.833.833.833h13.333c.46 0 .834-.373.834-.833V5a.833.833 0 0 0-.834-.833H3.334ZM.834 5a2.5 2.5 0 0 1 2.5-2.5h13.333a2.5 2.5 0 0 1 2.5 2.5v10a2.5 2.5 0 0 1-2.5 2.5H3.334a2.5 2.5 0 0 1-2.5-2.5V5Z" clip-rule="evenodd"/><path fill="currentColor" fill-rule="evenodd" d="M.964 5.386a.833.833 0 0 1 1.15-.256l7.473 4.748a.783.783 0 0 0 .83 0l7.47-4.748a.833.833 0 1 1 .894 1.407l-7.48 4.753a2.45 2.45 0 0 1-2.601 0l-.005-.003-7.475-4.75a.833.833 0 0 1-.256-1.15Z" clip-rule="evenodd"/></svg>