<svg fill="none" viewBox="0 0 20 20"><g clip-path="url(#a)"><path fill="currentColor" d="m4.835 9.418-3.167 8.917 8.917-3.159"/><path stroke="currentColor" stroke-linecap="round" stroke-linejoin="round" stroke-width="2" d="m4.835 9.418-3.167 8.917 8.917-3.159M3.332 2.5h.008M18.332 6.668h.008M12.5 1.668h.008M18.332 16.668h.008M18.335 1.668l-1.867.625a2.417 2.417 0 0 0-1.633 2.6v0a1.218 1.218 0 0 1-1.209 1.358h-.316c-.717 0-1.334.5-1.467 1.2l-.175.884M18.335 10.833l-.684-.275a1.223 1.223 0 0 0-1.65.925A1.209 1.209 0 0 1 14.81 12.5h-.642M9.167 1.668l.275.683a1.223 1.223 0 0 1-.925 1.65c-.584.084-1.017.6-1.017 1.192v.642"/><path fill="currentColor" stroke="currentColor" stroke-linecap="round" stroke-linejoin="round" stroke-width="2" d="M9.166 10.834c1.609 1.609 2.359 3.475 1.667 4.167-.692.692-2.558-.058-4.167-1.667C5.058 11.726 4.308 9.86 5 9.168c.691-.692 2.558.058 4.166 1.666Z"/></g><defs><clipPath id="a"><path fill="#fff" d="M0 0h20v20H0z"/></clipPath></defs></svg>