<svg xmlns="http://www.w3.org/2000/svg" fill="none" viewBox="0 0 21 21">
  <path fill="currentColor" stroke="currentColor" stroke-linecap="round" stroke-linejoin="round" stroke-width="2" d="M18.831 14.6v2.5a1.667 1.667 0 0 1-1.816 1.667 16.492 16.492 0 0 1-7.192-2.558 16.25 16.25 0 0 1-5-5 16.491 16.491 0 0 1-2.558-7.225 1.667 1.667 0 0 1 1.658-1.817h2.5A1.667 1.667 0 0 1 8.09 3.6c.105.8.3 1.586.583 2.342A1.667 1.667 0 0 1 8.298 7.7L7.24 8.76a13.333 13.333 0 0 0 5 5l1.058-1.059a1.666 1.666 0 0 1 1.758-.375c.756.283 1.542.478 2.342.584a1.666 1.666 0 0 1 1.432 1.69Z"/>
</svg>
