<svg xmlns="http://www.w3.org/2000/svg" fill="none" viewBox="0 0 29 28">
  <path stroke="currentColor" stroke-linecap="round" stroke-linejoin="round" stroke-width="2" d="M25 9.333V3.5h-5.834m0 5.833L25 3.5m0 15.723v3.16a2.106 2.106 0 0 1-1.436 2.006 2.115 2.115 0 0 1-.866.102 20.921 20.921 0 0 1-9.113-3.235 20.569 20.569 0 0 1-6.335-6.322 20.828 20.828 0 0 1-3.24-9.137A2.104 2.104 0 0 1 5.26 3.68c.268-.118.558-.18.85-.18h3.168a2.114 2.114 0 0 1 2.112 1.813c.134 1.011.382 2.005.74 2.96a2.103 2.103 0 0 1-.476 2.224l-1.34 1.338a16.878 16.878 0 0 0 6.334 6.323l1.341-1.338a2.113 2.113 0 0 1 2.228-.474c.958.357 1.953.604 2.967.737A2.112 2.112 0 0 1 25 19.223Z"/>
</svg>
