<svg fill="none" viewBox="0 0 24 25"><path stroke="currentColor" stroke-linecap="round" stroke-linejoin="round" stroke-width="2" d="M7.5 8.5V10m9-1.5V10M11 13.1c.8 0 1.5-.7 1.5-1.5V8.5m2.7 7.2c-1.8 1.8-4.7 1.8-6.5 0M3 8.3v8.4c0 1.68 0 2.52.327 3.162a3 3 0 0 0 1.311 1.311c.642.327 1.482.327 3.162.327h8.4c1.68 0 2.52 0 3.162-.327a3 3 0 0 0 1.311-1.311C21 19.22 21 18.38 21 16.7V8.3c0-1.68 0-2.52-.327-3.162a3 3 0 0 0-1.311-1.311C18.72 3.5 17.88 3.5 16.2 3.5H7.8c-1.68 0-2.52 0-3.162.327a3 3 0 0 0-1.311 1.311C3 5.78 3 6.62 3 8.3Z"/></svg>