<svg fill="none" viewBox="0 0 20 20"><path stroke="currentColor" stroke-linecap="round" stroke-linejoin="round" stroke-width="2" d="m17.5 9.167-6.328-6.329c-.433-.432-.649-.648-.901-.803a2.5 2.5 0 0 0-.723-.3c-.288-.068-.593-.068-1.205-.068H5M2.5 7.25v1.645c0 .408 0 .612.046.804.04.17.108.332.2.482.103.168.247.312.535.6l6.5 6.5c.66.66.99.99 1.37 1.114.335.108.696.108 1.03 0 .381-.124.711-.454 1.371-1.114l2.062-2.062c.66-.66.99-.99 1.114-1.37a1.668 1.668 0 0 0 0-1.03c-.124-.381-.454-.711-1.114-1.371L9.531 5.364c-.288-.288-.432-.432-.6-.535a1.667 1.667 0 0 0-.482-.2c-.192-.046-.396-.046-.804-.046H5.167c-.934 0-1.4 0-1.757.182-.314.16-.569.415-.728.728C2.5 5.85 2.5 6.317 2.5 7.25Z"/></svg>