<svg fill="none" viewBox="0 0 20 20"><path fill="#000" d="M6.213 16.372h8.457l.476-6.862H5.712l.5 6.862Zm-.65-8.823h9.733l.075-1.226-2.803-2.696H8.265L5.462 6.323l.1 1.226ZM3.66 9.216l-2.553-2.5a.92.92 0 0 1-.275-.687.92.92 0 0 1 .275-.686.96.96 0 0 1 .701-.27.96.96 0 0 1 .7.27l.901.882-.05-.588L6.838 2.23a1.95 1.95 0 0 1 .638-.416c.242-.098.497-.147.764-.147h4.354c.266 0 .52.049.763.147.242.098.454.237.638.416l3.478 3.407-.05.588.9-.882a.96.96 0 0 1 .701-.27.96.96 0 0 1 .7.27.92.92 0 0 1 .276.686.92.92 0 0 1-.275.687l-2.553 2.5H3.662Zm2.552 9.117c-.534 0-.993-.171-1.376-.514a1.834 1.834 0 0 1-.626-1.3l-.55-7.303h13.511l-.55 7.304a1.834 1.834 0 0 1-.626 1.299 1.994 1.994 0 0 1-1.376.514H6.213Z"/></svg>