<svg fill="none" viewBox="0 0 24 24"><g fill="currentColor" clip-path="url(#a)"><path d="M22.104 3.653h-6.587V3.29c0-1.4-1.14-2.54-2.54-2.54h-9.63c-1.4 0-2.54 1.14-2.54 2.54v17.42c0 1.4 1.14 2.54 2.54 2.54h9.63c1.4 0 2.54-1.14 2.54-2.54v-3.362h6.587c.601 0 1.088-.488 1.088-1.089V4.742c0-.601-.487-1.089-1.088-1.089Zm-1.089 2.178v1.082h-5.498V5.831h5.498ZM13.34 20.71c0 .2-.163.363-.363.363h-9.63a.363.363 0 0 1-.363-.363V3.29c0-.2.163-.363.363-.363h9.63c.2 0 .363.163.363.363v17.42Zm2.177-5.54V9.09h5.498v6.08h-5.498Z"/><path d="M11.57 3.653H4.753c-.602 0-1.089.488-1.089 1.089v4.173c0 .601.487 1.09 1.089 1.09h6.817c.601 0 1.089-.489 1.089-1.09V4.742c0-.601-.488-1.089-1.089-1.089Zm-1.089 4.174h-4.64V5.83h4.64v1.996ZM7.005 11.119h-1.89c-.2 0-.362.162-.362.363v1.296c0 .2.162.362.363.362h1.889c.2 0 .363-.162.363-.362v-1.296c0-.2-.163-.363-.363-.363ZM11.208 11.119H9.319c-.2 0-.363.162-.363.363v1.296c0 .2.163.362.363.362h1.889c.2 0 .363-.162.363-.362v-1.296c0-.2-.163-.363-.363-.363ZM7.005 14.527h-1.89c-.2 0-.362.163-.362.363v1.296c0 .2.162.363.363.363h1.889c.2 0 .363-.162.363-.363V14.89c0-.2-.163-.363-.363-.363ZM11.208 14.527H9.319c-.2 0-.363.163-.363.363v1.296c0 .2.163.363.363.363h1.889c.2 0 .363-.162.363-.363V14.89c0-.2-.163-.363-.363-.363ZM7.005 17.936h-1.89c-.2 0-.362.163-.362.363v1.296c0 .2.162.363.363.363h1.889c.2 0 .363-.162.363-.363V18.3c0-.2-.163-.363-.363-.363ZM11.208 17.936H9.319c-.2 0-.363.163-.363.363v1.296c0 .2.163.363.363.363h1.889c.2 0 .363-.162.363-.363V18.3c0-.2-.163-.363-.363-.363Z"/></g><defs><clipPath id="a"><path fill="transparent" d="M0 0h24v24H0z"/></clipPath></defs></svg>