<svg fill="none" viewBox="0 0 20 20"><path fill="currentColor" fill-rule="evenodd" d="M12.083 4.469c-.93.484-1.56 1.497-1.268 2.857a.833.833 0 0 1-.79 1.007c-2.648.078-5.29-.91-7.249-2.684-.966 3.15.844 6.734 4.13 7.72a.833.833 0 0 1 .31 1.425 7.517 7.517 0 0 1-2.679 1.492c6.009 1.836 12.382-3.269 11.307-9.987a.833.833 0 0 1 .233-.721c.151-.151.293-.321.425-.5a2.83 2.83 0 0 1-.669.09.833.833 0 0 1-.569-.225c-.975-.91-2.234-.968-3.181-.474Zm6.25-1.135.79.264V3.6l-.003.006-.006.02A6.294 6.294 0 0 1 19 3.93c-.078.197-.194.47-.346.78-.25.511-.619 1.16-1.107 1.73 1.09 8.826-8.673 15.17-16.341 10.087a.833.833 0 0 1 .498-1.527 6.576 6.576 0 0 0 3.222-.666C1.292 12.33-.307 7.585 1.768 3.77a.833.833 0 0 1 1.368-.14C4.61 5.37 6.803 6.466 9.076 6.645c.008-1.661.944-2.98 2.237-3.654a4.4 4.4 0 0 1 4.782.47 2.96 2.96 0 0 0 .249-.073c.231-.078.48-.187.716-.303a10.232 10.232 0 0 0 .816-.448l.01-.007h.002a.833.833 0 0 1 1.235.968l-.79-.264Z" clip-rule="evenodd"/></svg>