<svg width="20" height="21" viewBox="0 0 20 21" fill="none" xmlns="http://www.w3.org/2000/svg">
<path d="M13.6029 7.77006C13.6835 7.62632 13.747 7.47851 13.7942 7.32637L13.7958 7.32128L13.7958 7.32129C13.8701 7.09075 13.9067 6.85836 13.9067 6.62234C13.9067 5.98791 13.7585 5.48071 13.487 5.0753C13.2152 4.66952 12.8093 4.3466 12.2389 4.11759L12.2348 4.11594L12.2348 4.11593C11.6674 3.88231 10.9524 3.75586 10.0743 3.75586C9.07018 3.75586 8.30037 3.91501 7.73527 4.19959L7.73399 4.20023L7.73399 4.20023C7.15889 4.48778 6.75678 4.86626 6.49955 5.32937C6.30858 5.67939 6.17978 6.06323 6.11606 6.48455H7.42107C7.50953 6.01402 7.72007 5.6018 8.06864 5.27201L13.6029 7.77006ZM13.6029 7.77006H12.4417C12.6297 7.43142 12.7239 7.06485 12.7192 6.67797C12.7238 6.06224 12.4799 5.54119 11.996 5.16426C11.5148 4.7808 10.8506 4.63086 10.0885 4.63086C9.26737 4.63086 8.55698 4.80981 8.06877 5.27189L13.6029 7.77006ZM5.15527 8.77006H10.9192L11.2513 8.8646L13.1476 9.40437L13.4029 9.47702L13.6061 9.30633C13.8008 9.14278 13.9759 8.96402 14.1306 8.77006H14.901V9.49592H5.15527V8.77006ZM14.901 12.486H9.73808L8.76865 12.3159L6.74451 11.9609L6.54862 11.9265L6.38265 12.0361C6.18707 12.1652 6.00893 12.3155 5.84836 12.486H5.15527V11.7814H14.901V12.486ZM6.05213 14.0484C6.12039 13.8469 6.21238 13.6598 6.32844 13.486H7.47908C7.29524 13.856 7.20081 14.2525 7.19509 14.6695L7.19496 14.6695L7.19506 14.681C7.20126 15.3427 7.47887 15.8915 8.01432 16.2757L8.01429 16.2758L8.01976 16.2796C8.54313 16.6447 9.23403 16.7956 10.0317 16.7956C10.8016 16.7956 11.4798 16.6408 12.0316 16.2923L12.0328 16.2915C12.5279 15.9769 12.8099 15.5047 12.9142 14.9348H14.2347C14.1672 15.4838 14.0036 15.9279 13.7601 16.2825L13.7596 16.2833C13.4449 16.7435 12.9918 17.0962 12.3746 17.3342C11.7451 17.5721 10.9683 17.699 10.0317 17.699C8.63947 17.699 7.62702 17.4125 6.93399 16.9021C6.27136 16.4107 5.92771 15.7186 5.92234 14.7576C5.92668 14.526 5.96865 14.2909 6.05134 14.0507L6.05213 14.0484Z" fill="currentColor" stroke="currentColor"/>
</svg>
