<svg xmlns="http://www.w3.org/2000/svg" fill="none" viewBox="0 0 21 20">
  <path stroke="currentColor" stroke-linecap="round" stroke-linejoin="round" stroke-width="2" d="M3 1.667V7.5c0 .917.75 1.667 1.667 1.667H8A1.667 1.667 0 0 0 9.667 7.5V1.667m-3.334 0v16.666"/>
  <path fill="currentColor" d="M18 12.5V1.667a4.167 4.167 0 0 0-4.166 4.166v5c0 .917.75 1.667 1.666 1.667H18Zm0 0v5.833Z"/>
  <path stroke="currentColor" stroke-linecap="round" stroke-linejoin="round" stroke-width="2" d="M18 12.5v5.833m0-5.833V1.667a4.167 4.167 0 0 0-4.166 4.166v5c0 .917.75 1.667 1.666 1.667H18Z"/>
</svg>
