<svg fill="none" viewBox="0 0 20 20"><path stroke="currentColor" stroke-linecap="round" stroke-linejoin="round" stroke-width="2" d="M13.333 6.667V3.75c0-.694 0-1.04-.146-1.253a.833.833 0 0 0-.547-.35c-.255-.044-.57.101-1.199.392L4.05 5.952c-.561.259-.842.388-1.047.59-.182.177-.32.393-.406.633-.096.27-.096.58-.096 1.198V12.5m11.25-.417h.008M2.5 9.333v5.5c0 .934 0 1.4.182 1.757.16.314.414.569.728.728.357.182.823.182 1.757.182h9.666c.934 0 1.4 0 1.757-.182.314-.16.569-.414.728-.728.182-.357.182-.823.182-1.757v-5.5c0-.933 0-1.4-.182-1.756a1.666 1.666 0 0 0-.728-.729c-.357-.181-.823-.181-1.757-.181H5.167c-.934 0-1.4 0-1.757.181-.314.16-.569.415-.728.729C2.5 7.933 2.5 8.4 2.5 9.333Zm11.667 2.75a.417.417 0 1 1-.834 0 .417.417 0 0 1 .834 0Z"/></svg>