<svg fill="none" viewBox="0 0 163 62">
                  <path
                    fill="currentColor"
                    d="M110.089 39.824c-24.888 5.656-50.811 8.981-74.828 4.519-5.641-1.05-11.105-2.547-16.327-4.545-4.937-1.897-16.746-5.428-15.026-12.036 1.598-6.113 10.088-10.817 15.449-13.55 7.12-3.629 14.8-5.858 22.456-7.228 26.472-4.714 54.088-1.92 78.176 5.104 11.341 3.298 24.844 7.344 33.693 14.559 15.43 12.597-13.135 21.612-23.829 24.584-30.157 8.401-59.76 5.448-89.496 5.104-1.648-.02-2.013 2.548-.421 2.735 29.917 3.44 62.9 4.13 93.563-5.109 9.684-2.916 30.562-8.84 28.629-21.684-.746-4.993-4.95-8.504-9.095-11.007-6.262-3.779-13.433-6.602-20.446-9.158-27.051-9.848-59.026-14.198-89.731-8.99-13.264 2.25-30.559 7.375-39.61 18.605-9.462 11.745 3.902 17.452 13.086 20.987 28.65 11.006 62.884 7.068 94.474-.222 1.931-.46 1.19-3.1-.717-2.668Z"
                  />
                </svg>