<svg fill="none" viewBox="0 0 184 9">
                  <path
                    fill="currentColor"
                    d="M182.67 5.01c-2.88-.419-5.753-.933-8.667-1.183-2.932-.25-5.876-.497-8.816-.702A908.09 908.09 0 0 0 147.87 2.04a1291.494 1291.494 0 0 0-35.13-1.37C89.279.07 65.749.215 42.21.952c-13.187.415-26.38.986-39.58 1.762-.892.052-1.576.851-1.87 1.696-.195.564-.26 1.93.632 1.877 23.504-1.303 47-1.935 70.455-1.914 23.465.017 46.905.606 70.265 1.816 6.551.34 13.102.71 19.651 1.118 3.215.195 6.429.39 9.64.591 3.381.211 6.775.191 10.166.258 1.312.022 2.678-2.92 1.101-3.144Z"
                  />
                </svg>