<svg fill="none" viewBox="0 0 87 90">
                  <path
                    fill="currentColor"
                    d="M2.516 81.782c12.184 9.352 30.242 7.495 40.359-3.894 5.033-5.662 8.208-12.936 10.358-20.087 1.917-6.365 3.4-15.283-2.483-20.168-2.6-2.16-6.192-2.814-9.5-2.11-5.175 1.104-10.817 6.864-4.817 11.446 5.65 4.32 14.917 2.912 20.85.155 14.033-6.52 18.267-21.985 20.5-35.787.283-1.727 3.342-1.342 3.142.417-1.609 14.097-7.017 29.986-20.492 37.178-5.642 3.011-12.35 4.443-18.708 3.134-5.767-1.187-12.792-5-10.409-11.798 1.9-5.433 8.15-8.288 13.709-7.83 5.533.45 9.966 3.992 11.75 9.13 2.325 6.669.291 14.196-2.025 20.578-2.592 7.126-6.175 14.162-11.784 19.472-11.416 10.809-29.608 11.079-41.933 1.62-1.067-.818.433-2.266 1.483-1.456Z"
                  />
                  <path
                    fill="currentColor"
                    d="M84.889 34.418c-.883-7.707-1.775-15.423-2.65-23.13-.159-1.358.033-5.867-.8-6.824-1.933-2.217-4.317-.883-6.2.221-3.684 2.16-7.35 4.336-11.042 6.472-1.45.834-2.758-1.366-1.317-2.21C67.647 6.167 72.64 2.477 77.79.44c2.567-1.015 4.65-.278 5.658 2.299 1.608 4.107 1.217 9.613 1.65 13.95.6 5.907 1.192 11.823 1.792 17.73.125 1.26-1.858 1.235-2 0Z"
                  />
                </svg>