<svg width="20" height="20" viewBox="0 0 20 20" fill="none" xmlns="http://www.w3.org/2000/svg">
<path d="M9.22119 8.42195C8.85728 8.43281 8.53885 8.10713 8.4365 7.79774C8.20905 7.11382 8.25454 6.45161 8.28297 5.74598C8.30003 5.24118 8.32846 4.73095 8.36258 4.22615C8.37395 4.0796 8.37964 3.93305 8.39101 3.78106C8.39101 3.81363 8.38532 3.84077 8.38532 3.87334C8.391 3.71593 8.40238 3.56395 8.41375 3.40653C8.43081 3.10257 8.45356 2.80403 8.4763 2.50549C8.5161 1.9627 8.56159 1.41991 8.61846 0.882542C8.66395 0.453735 9.0563 -0.154193 9.5908 0.0357851C10.1651 0.242047 10.2333 0.980246 10.1935 1.46876C10.1822 1.62617 10.1708 1.77815 10.1594 1.93556C10.1594 1.9627 10.1481 2.09297 10.1481 2.14182C10.1367 2.35351 10.1196 2.57063 10.1139 2.78232C10.0912 3.28712 10.0684 3.79192 10.0684 4.29672C10.0684 4.80152 10.0741 5.30631 10.0912 5.81654C10.1082 6.47875 10.1822 7.11382 9.98884 7.75974C9.87511 8.07456 9.58511 8.41652 9.22119 8.42195ZM6.38946 10.5714C5.43417 10.3869 4.39928 10.5551 3.43831 10.6745C2.47165 10.7994 1.51068 10.9839 0.561083 11.2065C0.345007 11.2553 0.151674 11.5864 0.0891257 11.7601C0.00383237 12.0044 -0.0189153 12.2541 0.015202 12.5146C0.0606918 12.8837 0.316573 13.5785 0.834019 13.5134C1.72107 13.4102 2.60812 13.3505 3.50086 13.3397C3.9387 13.3342 4.38223 13.3397 4.82007 13.3559C5.27496 13.3722 5.74123 13.4482 6.19044 13.3939C6.83298 13.3125 7.09455 12.672 7.12867 12.1238C7.15141 11.8253 7.12298 11.4887 6.98651 11.2119C6.87848 10.9839 6.67946 10.6311 6.38946 10.5714ZM10.9896 16.1296C10.9441 15.2937 10.9498 14.4578 10.9726 13.6219C10.9839 13.2094 10.7451 12.5689 10.2561 12.5038C9.77845 12.4386 9.43727 12.938 9.40316 13.3505C9.33492 14.2896 9.29512 15.2286 9.27238 16.1676C9.24963 17.1175 9.20983 18.0945 9.35198 19.0336C9.42022 19.5004 9.84099 20.1083 10.4039 19.9835C11.001 19.8532 11.1829 19.1258 11.1829 18.6265C11.1773 18.2194 11.109 17.8069 11.0749 17.3998C11.0408 16.9818 11.0124 16.5584 10.9896 16.1296ZM19.9852 9.96349C19.917 9.40984 19.6383 8.82905 18.9958 8.75848C18.5409 8.70963 18.0405 8.86704 17.5913 8.93761C17.1194 9.00817 16.6474 9.06788 16.1754 9.1113C15.7035 9.15472 15.2258 9.171 14.7539 9.21443C14.2535 9.25785 13.6621 9.22529 13.2072 9.42069C12.7467 9.62153 12.559 10.2512 12.5818 10.6908C12.6102 11.1793 12.7865 11.7004 13.2698 11.9338C13.7076 12.1455 14.3445 12.113 14.8278 12.1347C15.3168 12.1509 15.8172 12.1075 16.3062 12.0695C16.7782 12.0315 17.2501 11.9773 17.7221 11.9067C18.2395 11.8307 18.865 11.7873 19.3256 11.5322C19.8942 11.2173 20.0534 10.5497 19.9852 9.96349Z" fill="#444CE7"/>
</svg>
