<svg width="160" height="194" viewBox="0 0 160 194" fill="none" xmlns="http://www.w3.org/2000/svg">
<path d="M40.2901 149.754C30.5681 140.449 22.3628 129.68 15.9721 117.838C12.7718 111.917 10.0453 105.751 7.81811 99.3998C5.80611 93.6518 3.95811 87.6898 3.41811 81.5998C2.94211 76.3138 3.28411 70.5598 6.17411 65.9478C9.06411 61.3358 14.1741 59.1158 19.5281 59.5278C25.0741 59.9558 30.4181 62.9278 34.0881 67.0378C36.3701 69.5958 38.1021 72.6538 39.4721 75.7838C39.8061 76.5518 40.1101 77.3318 40.4001 78.1178C40.5229 78.3888 40.6129 78.6735 40.6681 78.9658C40.6614 79.0443 40.6474 79.122 40.6261 79.1978C40.4261 79.6218 39.8061 79.8258 39.4601 79.5518C39.2301 79.3698 39.0481 78.7758 38.9021 78.3938C38.6008 77.6098 38.3134 76.8198 38.0401 76.0238C37.5068 74.4771 37.0274 72.9158 36.6021 71.3398C35.7379 68.1681 35.0865 64.9423 34.6521 61.6838C33.8001 55.1789 33.7907 48.5912 34.6241 42.0838C35.4378 35.6578 37.1212 29.3723 39.6281 23.3998C40.902 20.3897 42.3939 17.4766 44.0921 14.6838C45.7261 11.9998 47.5141 9.37381 49.8121 7.19981C51.9401 5.19981 54.6001 3.64581 57.5801 3.51181C60.4581 3.38381 63.1141 4.48581 65.4341 6.11181C70.6641 9.79981 73.9581 15.6898 76.9181 21.1998C83.834 34.0782 88.7707 47.9249 91.5621 62.2738C91.9101 64.0598 92.2301 65.8518 92.5061 67.6498C92.7541 69.2738 92.9181 71.1878 92.6041 72.7938C92.5429 73.111 92.4221 73.4136 92.2481 73.6858C92.0664 73.9147 91.8316 74.096 91.5641 74.2138C91.2593 74.3548 90.9221 74.4108 90.5881 74.3758C90.4616 74.3939 90.3325 74.378 90.2141 74.3298C90.1261 74.3098 89.6141 74.1298 89.7641 74.1978C89.4387 74.0818 89.1585 73.8654 88.9641 73.5798C88.8108 73.3299 88.7069 73.0529 88.6581 72.7638C88.4941 71.5538 88.8581 69.9638 89.1081 68.7258C89.7016 65.7429 90.7742 62.8758 92.2841 60.2358C95.4001 54.8178 100.518 50.2158 106.684 48.6978C109.898 47.8978 113.188 48.2318 116.058 49.9258C118.788 51.5258 120.94 54.0078 122.742 56.5778C130.2 67.1998 132.786 80.9198 130.246 93.5998C129.928 95.1898 129.53 96.7658 129.046 98.3158C129.007 98.4466 128.979 98.5804 128.962 98.7158C128.936 98.8098 128.892 98.7758 128.924 98.7618C128.898 98.7719 128.87 98.7756 128.843 98.7724C128.815 98.7693 128.789 98.7595 128.766 98.7438C128.694 98.7078 128.676 98.5898 128.698 98.7438C128.66 98.4878 128.982 97.5238 129.128 97.0498C129.388 96.1833 129.701 95.3337 130.066 94.5058C130.693 93.029 131.533 91.6523 132.56 90.4198C135.984 86.4838 142.292 83.8198 146.934 87.3438C149.186 89.0558 150.48 91.7658 151.372 94.3778C152.48 97.6178 153.204 101.004 153.956 104.34C155.656 111.888 156.924 119.586 156.732 127.34C156.434 139.508 151.792 152.448 141.314 159.498C136.543 162.739 130.807 164.25 125.058 163.782C119.318 163.304 113.898 160.82 109.258 157.492C104.276 153.916 100.07 149.218 96.7841 144.058C95.145 141.503 93.7381 138.806 92.5801 136C91.6041 133.6 90.2661 130.212 92.9041 128.4C94.8041 127.098 97.4821 127.12 99.4701 128.2C102.218 129.684 104.012 132.388 105.606 134.98C109.006 140.51 112.146 146.274 114.468 152.346C116.668 158.114 118.254 164.316 117.752 170.534C117.294 176.204 114.724 181.592 110.352 185.278C102.188 192.158 89.5301 191.678 80.2901 187.408C75.4721 185.18 71.0801 181.844 67.0281 178.452C62.4181 174.594 58.1561 170.338 54.0881 165.922C49.2881 160.71 44.7441 155.266 40.2881 149.756C39.7781 149.126 38.6981 149.226 38.1681 149.756C37.5441 150.38 37.6561 151.246 38.1681 151.878C47.0841 162.906 56.3681 174.004 67.6101 182.758C72.3101 186.416 77.2681 189.79 82.9741 191.658C88.7201 193.542 94.9861 194.058 100.928 192.858C106.74 191.692 112.114 188.67 115.746 183.938C119.85 178.592 121.3 171.866 120.706 165.228C120.07 158.142 117.578 151.362 114.526 144.984C112.986 141.766 111.272 138.634 109.456 135.564C107.708 132.606 105.912 129.456 103.256 127.206C100.784 125.11 97.8281 124.034 94.5881 124.588C91.8141 125.062 89.1701 126.928 88.5181 129.788C87.6961 133.388 89.7601 137.292 91.3181 140.446C92.8136 143.481 94.5907 146.369 96.6261 149.072C104.326 159.306 116.47 168.108 129.9 166.752C143.366 165.394 153.19 154.518 157.318 142.214C159.832 134.712 160.164 126.59 159.414 118.768C158.985 114.527 158.321 110.313 157.426 106.146C156.626 102.33 155.796 98.4798 154.654 94.7458C153.708 91.6518 152.398 88.5298 150.116 86.1718C149.015 85.0251 147.685 84.1234 146.212 83.5255C144.739 82.9275 143.157 82.6469 141.568 82.7018C138.33 82.8298 135.266 84.1698 132.736 86.1478C129.91 88.3478 128.032 91.3758 126.774 94.7058C126.222 96.1698 125.33 98.1218 125.876 99.7058C126.328 101.008 127.66 101.814 129.014 101.77C130.692 101.718 131.552 100.442 131.994 98.9838C132.506 97.2889 132.927 95.5678 133.254 93.8278C134.583 86.7667 134.469 79.5096 132.918 72.4938C131.376 65.5338 128.358 58.8578 123.972 53.2278C121.814 50.4578 119.172 47.9078 115.91 46.4958C112.382 44.9678 108.482 44.9818 104.834 46.1078C98.1241 48.1778 92.5801 53.3438 89.2921 59.4618C87.6784 62.4491 86.5727 65.6838 86.0201 69.0338C85.5821 71.7558 85.1821 74.8458 87.8481 76.5638C89.7541 77.7938 92.4961 77.6438 94.1501 76.0458C95.1501 75.0758 95.5241 73.8198 95.6461 72.4658C95.8301 70.4178 95.6461 68.3938 95.3221 66.3698C94.0691 58.5257 92.1788 50.7968 89.6701 43.2598C87.1583 35.699 84.045 28.3515 80.3601 21.2878C77.0761 14.9938 73.4521 8.48781 67.7121 4.08781C65.1421 2.12181 62.1401 0.737808 58.8821 0.521808C55.4821 0.295808 52.1721 1.52181 49.4941 3.56181C46.6941 5.68981 44.5181 8.48181 42.6121 11.4078C40.6675 14.4021 38.9622 17.5452 37.5121 20.8078C31.6401 33.9878 29.8001 48.7078 31.8161 62.9698C32.3162 66.5038 33.0661 69.9979 34.0601 73.4258C34.5534 75.1418 35.1121 76.8331 35.7361 78.4998C36.2641 79.9198 36.7021 81.5298 38.1581 82.2678C40.6021 83.5078 43.8481 81.5938 43.6401 78.7718C43.5741 77.8938 43.1981 77.0758 42.8821 76.2658C42.5201 75.3478 42.1361 74.4358 41.7241 73.5378C40.9235 71.7868 39.9873 70.101 38.9241 68.4958C35.2761 62.9998 29.8681 58.7998 23.4001 57.1598C17.3321 55.6278 10.8001 56.7238 6.20011 61.1598C1.78011 65.4338 0.272108 71.7238 0.234108 77.6878C0.194108 84.3018 1.85011 90.7638 3.85611 97.0158C10.5603 117.869 22.3534 136.723 38.1701 151.876C39.5701 153.21 41.6901 151.092 40.2901 149.754Z" fill="#444CE7"/>
</svg>
