<svg width="50" height="50" viewBox="0 0 50 50" fill="none" xmlns="http://www.w3.org/2000/svg">
<mask id="mask0_2102_18692" style="mask-type:luminance" maskUnits="userSpaceOnUse" x="0" y="0" width="50" height="50">
<path d="M50 0H0V50H50V0Z" fill="white"/>
</mask>
<g mask="url(#mask0_2102_18692)">
<path d="M50 25C50 11.1929 38.807 0 25 0C11.193 0 0 11.1929 0 25C0 37.478 9.14199 47.8208 21.094 49.6963V32.2266H14.746V25H21.094V19.4922C21.094 13.2266 24.826 9.76562 30.537 9.76562C33.271 9.76562 36.133 10.2539 36.133 10.2539V16.4062H32.98C29.875 16.4062 28.906 18.3335 28.906 20.3125V25H35.84L34.731 32.2266H28.906V49.6963C40.858 47.8208 50 37.478 50 25Z" fill="black"/>
</g>
</svg>
