<svg width="44" height="44" viewBox="0 0 44 44" fill="none" xmlns="http://www.w3.org/2000/svg">
<path d="M44 22C44 9.84974 34.1503 0 22 0C9.84974 0 0 9.84974 0 22C0 34.1503 9.84974 44 22 44C34.1503 44 44 34.1503 44 22Z" fill="#444CE7"/>
<path d="M36 22.5C36 29.956 29.956 36 22.5 36C15.044 36 9 29.956 9 22.5C9 15.044 15.044 9 22.5 9C29.956 9 36 15.044 36 22.5Z" fill="white"/>
<mask id="mask0_2102_18691" style="mask-type:luminance" maskUnits="userSpaceOnUse" x="8" y="8" width="28" height="28">
<path d="M36 8H8V36H36V8Z" fill="white"/>
</mask>
<g mask="url(#mask0_2102_18691)">
<path fill-rule="evenodd" clip-rule="evenodd" d="M11.929 35.313C12.53 35.548 13.435 35.825 15.1 35.901C16.9 35.984 17.441 36 22 36C26.56 36 27.101 35.983 28.901 35.901C30.566 35.825 31.471 35.548 32.072 35.313C32.869 35.003 33.439 34.634 34.036 34.036C34.634 33.439 35.003 32.87 35.313 32.073C35.546 31.471 35.825 30.567 35.901 28.902C35.983 27.1 36 26.559 36 22C36 17.44 35.983 16.901 35.901 15.099C35.825 13.434 35.548 12.529 35.313 11.928C35.003 11.131 34.634 10.561 34.036 9.964C33.438 9.366 32.869 8.995 32.072 8.687C31.469 8.454 30.566 8.175 28.901 8.099C27.099 8.018 26.56 8 22 8C17.441 8 16.9 8.017 15.099 8.099C13.434 8.175 12.529 8.452 11.928 8.687C11.13 8.995 10.561 9.366 9.96399 9.964C9.36699 10.563 8.99701 11.131 8.68701 11.929C8.45401 12.532 8.175 13.435 8.099 15.1C8.018 16.902 8 17.441 8 22.001C8 26.562 8.01701 27.102 8.10001 28.902C8.17601 30.567 8.45301 31.471 8.68701 32.073C8.99601 32.87 9.366 33.439 9.965 34.036C10.563 34.634 11.131 35.003 11.929 35.313ZM22.03 18.592C20.115 18.592 18.563 20.144 18.563 22.059C18.563 23.974 20.115 25.527 22.03 25.527C23.945 25.527 25.497 23.974 25.497 22.059C25.497 20.144 23.945 18.592 22.03 18.592ZM22.03 27.401C19.08 27.401 16.688 25.009 16.688 22.059C16.688 19.109 19.08 16.718 22.03 16.718C24.98 16.718 27.371 19.109 27.371 22.059C27.371 25.009 24.98 27.401 22.03 27.401ZM26.544 17.2C26.407 16.994 26.334 16.753 26.334 16.506C26.335 16.175 26.466 15.858 26.7 15.624C26.934 15.39 27.252 15.259 27.583 15.258C27.83 15.259 28.071 15.332 28.277 15.469C28.482 15.606 28.642 15.801 28.736 16.029C28.83 16.258 28.855 16.509 28.807 16.751C28.759 16.993 28.64 17.215 28.465 17.39C28.29 17.564 28.068 17.683 27.826 17.731C27.583 17.779 27.333 17.754 27.104 17.66C26.876 17.565 26.682 17.405 26.544 17.2ZM15.896 30.169C16.262 30.311 16.813 30.48 17.827 30.526C18.923 30.576 19.252 30.587 22.03 30.587C24.808 30.587 25.137 30.577 26.233 30.527C27.248 30.481 27.799 30.312 28.165 30.169C28.651 29.98 28.998 29.754 29.362 29.391C29.725 29.027 29.951 28.681 30.14 28.195C30.282 27.829 30.451 27.278 30.498 26.263C30.548 25.166 30.558 24.838 30.558 22.06C30.558 19.282 30.548 18.953 30.498 17.856C30.451 16.842 30.283 16.29 30.14 15.924C29.951 15.439 29.726 15.092 29.362 14.728C28.997 14.364 28.651 14.138 28.165 13.95C27.798 13.808 27.248 13.638 26.233 13.592C25.136 13.542 24.806 13.531 22.03 13.531C19.253 13.531 18.924 13.541 17.827 13.592C16.813 13.638 16.262 13.807 15.896 13.95C15.409 14.138 15.063 14.363 14.699 14.728C14.335 15.092 14.11 15.438 13.921 15.924C13.78 16.291 13.609 16.842 13.563 17.856C13.514 18.953 13.503 19.282 13.503 22.06C13.503 24.837 13.513 25.167 13.563 26.263C13.609 27.277 13.778 27.829 13.921 28.195C14.109 28.681 14.335 29.027 14.699 29.391C15.063 29.754 15.41 29.98 15.896 30.169ZM15.216 12.203C15.877 11.946 16.634 11.771 17.741 11.72H17.742C18.851 11.669 19.207 11.657 22.031 11.657C24.855 11.657 25.21 11.67 26.319 11.72C27.426 11.77 28.182 11.946 28.844 12.203C29.527 12.469 30.108 12.824 30.686 13.403C31.264 13.982 31.619 14.562 31.886 15.246C32.143 15.907 32.318 16.663 32.369 17.771C32.419 18.88 32.431 19.234 32.431 22.059C32.431 24.884 32.419 25.238 32.369 26.348C32.319 27.455 32.143 28.212 31.886 28.873C31.619 29.557 31.265 30.137 30.686 30.715C30.107 31.294 29.527 31.649 28.843 31.915C28.182 32.172 27.426 32.348 26.318 32.398C25.209 32.45 24.855 32.461 22.03 32.461C19.205 32.461 18.851 32.449 17.741 32.398C16.634 32.348 15.878 32.172 15.216 31.915C14.531 31.649 13.952 31.293 13.374 30.715C12.795 30.138 12.439 29.557 12.174 28.873C11.917 28.212 11.741 27.455 11.691 26.348C11.639 25.239 11.628 24.884 11.628 22.059C11.628 19.234 11.639 18.88 11.691 17.771C11.741 16.663 11.917 15.907 12.174 15.246C12.439 14.561 12.795 13.981 13.374 13.403C13.953 12.825 14.532 12.469 15.216 12.203Z" fill="#444CE7"/>
</g>
</svg>
