<svg width="50" height="50" viewBox="0 0 50 50" fill="none" xmlns="http://www.w3.org/2000/svg">
<path d="M50 25C50 11.1929 38.8071 0 25 0C11.1929 0 0 11.1929 0 25C0 38.8071 11.1929 50 25 50C38.8071 50 50 38.8071 50 25Z" fill="#444CE7"/>
<path d="M42.9998 25.0001C42.9998 46.5001 39.4998 43.0001 24.4998 43.0001C12.6652 43.0001 7.00074 47 7.00068 25.0001C5.99994 7.49996 12.4999 5.00005 26.0007 7.50001C37.8354 7.50001 42.9998 12.2822 42.9998 25.0001Z" fill="white"/>
<path d="M40.0921 6.65991L9.41406 6.65993C7.66462 6.65993 6.25 8.04193 6.25 9.74893L6.76144 40.4909C6.76144 42.1989 8.17606 43.5889 9.9255 43.5889H40.0838C41.8332 43.5889 43.2562 42.1989 43.2562 40.4999L43.2645 9.74892C43.2645 8.04192 41.8415 6.65991 40.0921 6.65991ZM16.2863 40.0919H9.92466V19.6339H16.2863V40.0919ZM13.1055 16.8469C11.0631 16.8469 9.41406 15.1979 9.41406 13.1639C9.41406 11.1299 11.0631 9.48091 13.1055 9.48091C15.1395 9.48091 16.7885 11.1299 16.7885 13.1639C16.7885 15.1899 15.1395 16.8469 13.1055 16.8469ZM40.0921 40.0919H33.7389V30.1479C33.7389 27.7789 33.697 24.7239 30.4325 24.7239C27.1262 24.7239 26.6239 27.3099 26.6239 29.9799V40.0919H20.2791V19.6339H26.3728V22.4299H26.4565C27.3019 20.8229 29.3778 19.1239 32.4666 19.1239C38.9035 19.1239 40.0921 23.3589 40.0921 28.8669V40.0919Z" fill="#444CE7"/>
</svg>
