<svg width="28" height="28" viewBox="0 0 28 28" fill="none" xmlns="http://www.w3.org/2000/svg">
<mask id="mask0_953_15380" style="mask-type:luminance" maskUnits="userSpaceOnUse" x="0" y="0" width="28" height="28">
<path d="M28 0H0V28H28V0Z" fill="white"/>
</mask>
<g mask="url(#mask0_953_15380)">
<path fill-rule="evenodd" clip-rule="evenodd" d="M28 14C28 21.732 21.732 28 14 28C6.268 28 0 21.732 0 14C0 6.268 6.268 0 14 0C21.732 0 28 6.268 28 14ZM14.502 10.335C13.14 10.9014 10.419 12.0736 6.33701 13.8518C5.67501 14.1153 5.32699 14.3732 5.29599 14.6253C5.24199 15.0513 5.77599 15.2191 6.50299 15.4475C6.60099 15.4786 6.70399 15.5108 6.80899 15.5449C7.52399 15.7773 8.48499 16.0491 8.98499 16.0599C9.43799 16.0697 9.94399 15.8828 10.503 15.4991C14.316 12.9251 16.285 11.624 16.409 11.596C16.496 11.5762 16.617 11.5513 16.698 11.6241C16.78 11.6968 16.772 11.8346 16.764 11.8716C16.711 12.0969 14.616 14.044 13.532 15.0516C13.195 15.3658 12.955 15.5886 12.906 15.6395C12.796 15.7535 12.684 15.8613 12.577 15.9649C11.913 16.6051 11.415 17.0852 12.604 17.8692C13.176 18.2459 13.633 18.5574 14.09 18.8682C14.588 19.2076 15.085 19.5462 15.729 19.9678C15.893 20.0753 16.049 20.1868 16.202 20.2955C16.782 20.709 17.303 21.0806 17.946 21.0213C18.321 20.9869 18.707 20.6351 18.903 19.586C19.367 17.1066 20.279 11.7344 20.489 9.5207C20.508 9.3268 20.485 9.0785 20.466 8.9696C20.447 8.8606 20.408 8.7054 20.267 8.5904C20.099 8.4543 19.84 8.4256 19.724 8.4277C19.198 8.4369 18.39 8.7179 14.502 10.335Z" fill="#444CE7"/>
</g>
</svg>
